<?xml version="1.0" encoding="utf-8" standalone="no"?>
<!DOCTYPE svg PUBLIC "-//W3C//DTD SVG 1.1//EN"
  "http://www.w3.org/Graphics/SVG/1.1/DTD/svg11.dtd">
<!-- Created with matplotlib (https://matplotlib.org/) -->
<svg height="242.64pt" version="1.1" viewBox="0 0 242.64 242.64" width="242.64pt" xmlns="http://www.w3.org/2000/svg" xmlns:xlink="http://www.w3.org/1999/xlink">
 <defs>
  <style type="text/css">
*{stroke-linecap:butt;stroke-linejoin:round;}
  </style>
 </defs>
 <g id="figure_1">
  <g id="patch_1">
   <path d="M 0 242.64 
L 242.64 242.64 
L 242.64 0 
L 0 0 
z
" style="fill:#ffffff;"/>
  </g>
  <g id="axes_1">
   <g id="patch_2">
    <path clip-path="url(#pdd8fb8aecc)" d="M 88.375258 204.054415 
L 91.043163 204.407874 
L 93.715527 204.648278 
L 96.3879 204.775224 
L 99.055836 204.788502 
L 101.714893 204.68809 
L 104.360647 204.474155 
L 106.988693 204.147053 
L 109.594657 203.707329 
L 112.174202 203.155714 
L 114.723035 202.493126 
L 117.236913 201.720668 
L 119.711652 200.839627 
L 122.143133 199.851468 
L 124.52731 198.757835 
L 126.860214 197.56055 
L 129.137961 196.261605 
L 131.356762 194.863162 
L 133.512923 193.367549 
L 135.602855 191.777254 
L 137.62308 190.094925 
L 139.570236 188.323362 
L 141.441081 186.465514 
L 143.232502 184.524472 
L 144.941516 182.503467 
L 146.565281 180.405864 
L 148.101092 178.235152 
L 149.546395 175.994946 
L 150.898782 173.688974 
L 152.156004 171.321074 
L 153.315967 168.895186 
L 154.376742 166.41535 
L 155.336562 163.885691 
L 156.19383 161.310421 
L 156.94712 158.693826 
L 157.595177 156.040261 
L 158.136923 153.354142 
L 158.571456 150.63994 
L 158.898052 147.902173 
L 159.11617 145.145398 
L 159.225444 142.374203 
L 159.225694 139.593199 
L 159.116919 136.807017 
L 158.899299 134.020293 
L 158.573198 131.237665 
L 158.139159 128.463766 
L 157.597902 125.703211 
L 156.95033 122.960596 
L 156.19752 120.240485 
L 155.340724 117.547405 
L 154.381371 114.88584 
L 153.321054 112.260219 
L 152.161541 109.674911 
L 150.90476 107.134221 
L 149.552804 104.642376 
L 148.107922 102.203524 
L 146.572519 99.821725 
L 144.949152 97.500943 
L 143.240521 95.245039 
L 141.449471 93.05777 
L 139.578983 90.942776 
L 137.63217 88.903576 
L 135.612272 86.943565 
L 133.522651 85.066006 
L 131.366786 83.274022 
L 129.148263 81.570597 
L 126.870777 79.958566 
L 124.538117 78.440612 
L 122.154167 77.019261 
L 119.722893 75.696879 
L 117.248343 74.475667 
L 114.734634 73.357658 
L 112.185952 72.344713 
L 109.606538 71.438517 
L 107.000685 70.640578 
L 104.37273 69.952226 
L 101.727048 69.374605 
L 99.068041 68.908677 
L 96.400136 68.555217 
L 93.727773 68.314814 
L 91.0554 68.187867 
L 88.387464 68.174589 
L 85.728406 68.275001 
L 83.082653 68.488936 
L 80.454607 68.816038 
L 77.848643 69.255762 
L 75.269098 69.807377 
L 72.720265 70.469965 
L 70.206387 71.242423 
L 67.731648 72.123464 
L 65.300166 73.111624 
L 62.91599 74.205256 
L 60.583086 75.402541 
L 58.305338 76.701486 
L 56.086538 78.099929 
L 53.930377 79.595542 
L 51.840444 81.185837 
L 49.820219 82.868166 
L 47.873064 84.639729 
L 46.002219 86.497577 
L 44.210798 88.438619 
L 42.501783 90.459624 
L 40.878019 92.557228 
L 39.342207 94.727939 
L 37.896905 96.968145 
L 36.544518 99.274117 
L 35.287296 101.642018 
L 34.127332 104.067905 
L 33.066558 106.547741 
L 32.106737 109.0774 
L 31.249469 111.65267 
L 30.49618 114.269265 
L 29.848123 116.92283 
L 29.306377 119.608949 
L 28.871844 122.323151 
L 28.545247 125.060918 
L 28.32713 127.817693 
L 28.217856 130.588889 
L 28.217606 133.369892 
L 28.326381 136.156074 
L 28.544 138.942798 
L 28.870101 141.725426 
L 29.304141 144.499325 
L 29.845398 147.25988 
L 30.49297 150.002495 
L 31.24578 152.722606 
L 32.102575 155.415686 
L 33.061929 158.077251 
L 34.122245 160.702873 
L 35.281758 163.28818 
L 36.538539 165.828871 
L 37.890496 168.320715 
L 39.335378 170.759567 
L 40.87078 173.141366 
L 42.494148 175.462149 
L 44.202778 177.718052 
L 45.993828 179.905321 
L 47.864317 182.020315 
L 49.81113 184.059515 
L 51.831028 186.019526 
L 53.920648 187.897086 
L 56.076514 189.689069 
L 58.295036 191.392494 
L 60.572522 193.004525 
L 62.905182 194.52248 
L 65.289133 195.94383 
L 67.720407 197.266212 
L 70.194957 198.487424 
L 72.708665 199.605433 
L 75.257347 200.618378 
L 77.836762 201.524574 
L 80.442615 202.322513 
L 83.070569 203.010865 
L 85.716252 203.588486 
z
" style="fill:#fcfdbf;"/>
   </g>
   <g id="patch_3">
    <path clip-path="url(#pdd8fb8aecc)" d="M 85.292912 141.111992 
L 85.057349 136.146017 
L 84.900323 131.147932 
L 84.822174 126.128561 
L 84.823071 121.098777 
L 84.903012 116.069471 
L 85.061824 111.051537 
L 85.299164 106.055842 
L 85.614516 101.093206 
L 86.007199 96.174377 
L 86.476361 91.310008 
L 87.020987 86.510633 
L 87.639897 81.786648 
L 88.33175 77.148283 
L 89.095049 72.605585 
L 89.928139 68.16839 
L 89.928139 68.16839 
L 94.400558 68.364649 
L 98.869811 68.8785 
L 103.315061 69.707547 
L 107.715582 70.847926 
L 112.050857 72.294319 
L 116.300673 74.039982 
L 120.445215 76.076777 
L 124.465159 78.395207 
L 128.341763 80.984462 
L 132.056952 83.83247 
L 135.593404 86.925952 
L 138.93463 90.250485 
L 142.065053 93.790569 
L 144.970077 97.529698 
L 147.636156 101.450439 
L 150.050862 105.53451 
L 152.202934 109.762871 
L 154.08234 114.115807 
L 155.680317 118.573022 
L 156.989413 123.113735 
L 158.003526 127.716775 
L 158.717927 132.360681 
L 159.129286 137.023799 
L 159.129286 137.023799 
L 154.384282 137.568625 
L 149.567669 138.07826 
L 144.689877 138.5516 
L 139.761472 138.98762 
L 134.793126 139.385376 
L 129.7956 139.744006 
L 124.779719 140.062735 
L 119.756344 140.34087 
L 114.736356 140.577811 
L 109.730626 140.773043 
L 104.749997 140.926145 
L 99.805254 141.036784 
L 94.907108 141.104721 
L 90.066166 141.129808 
L 85.292912 141.111992 
z
" style="fill:#fcfdbf;"/>
   </g>
   <g id="patch_4">
    <path clip-path="url(#pdd8fb8aecc)" d="M 85.292912 141.111992 
L 85.206191 136.149689 
L 85.197684 131.155269 
L 85.26741 126.139547 
L 85.415218 121.113388 
L 85.640787 116.087676 
L 85.94363 111.073296 
L 86.32309 106.081108 
L 86.778346 101.121924 
L 87.308411 96.206484 
L 87.912138 91.345435 
L 88.588219 86.549305 
L 89.335189 81.828479 
L 90.151431 77.193184 
L 91.035178 72.653457 
L 91.984515 68.219132 
L 91.984515 68.219132 
L 96.474325 68.563511 
L 100.951208 69.226861 
L 105.394138 70.206068 
L 109.782249 71.496533 
L 114.094932 73.092194 
L 118.311934 74.985558 
L 122.41345 77.167733 
L 126.380217 79.62847 
L 130.193606 82.356214 
L 133.835707 85.338152 
L 137.289416 88.560282 
L 140.538512 92.007469 
L 143.567737 95.663526 
L 146.362864 99.511281 
L 148.910765 103.532664 
L 151.199475 107.708789 
L 153.218246 112.020042 
L 154.957595 116.446177 
L 156.409355 120.966407 
L 157.566707 125.559502 
L 158.424216 130.203892 
L 158.977854 134.877764 
L 158.977854 134.877764 
L 154.241411 135.543904 
L 149.433667 136.179238 
L 144.565036 136.782391 
L 139.64606 137.352055 
L 134.687395 137.886997 
L 129.699779 138.38606 
L 124.694014 138.84816 
L 119.680942 139.272299 
L 114.671419 139.657557 
L 109.676296 140.0031 
L 104.706391 140.30818 
L 99.772467 140.572135 
L 94.88521 140.794395 
L 90.055205 140.974477 
L 85.292912 141.111992 
z
" style="fill:#fdebac;"/>
   </g>
   <g id="patch_5">
    <path clip-path="url(#pdd8fb8aecc)" d="M 85.292912 141.111992 
L 85.355157 136.158238 
L 85.495293 131.172348 
L 85.713017 126.16512 
L 86.007858 121.147398 
L 86.379178 116.13005 
L 86.826171 111.123942 
L 87.347871 106.139917 
L 87.943146 101.188768 
L 88.610708 96.28122 
L 89.349112 91.427899 
L 90.156757 86.639318 
L 91.031895 81.925848 
L 91.97263 77.297697 
L 92.976925 72.764888 
L 94.042605 68.337239 
L 94.042605 68.337239 
L 98.546878 68.830688 
L 103.028311 69.644379 
L 107.465688 70.774461 
L 111.838004 72.215583 
L 116.124562 73.960925 
L 120.30507 76.002224 
L 124.359739 78.329816 
L 128.269374 80.932685 
L 132.01547 83.798508 
L 135.580292 86.913719 
L 138.946965 90.263573 
L 142.099553 93.83221 
L 145.023133 97.602739 
L 147.703863 101.557311 
L 150.129056 105.677205 
L 152.287229 109.942919 
L 154.168168 114.33426 
L 155.762968 118.830442 
L 157.06408 123.410179 
L 158.065345 128.051793 
L 158.762022 132.733311 
L 158.762022 132.733311 
L 154.03778 133.520676 
L 149.242678 134.281617 
L 144.387102 135.014486 
L 139.481568 135.717696 
L 134.5367 136.389724 
L 129.563207 137.029114 
L 124.571861 137.634482 
L 119.573473 138.204516 
L 114.578867 138.737982 
L 109.598861 139.233725 
L 104.644241 139.69067 
L 99.725736 140.107829 
L 94.854 140.484298 
L 90.039583 140.81926 
L 85.292912 141.111992 
z
" style="fill:#fed799;"/>
   </g>
   <g id="patch_6">
    <path clip-path="url(#pdd8fb8aecc)" d="M 85.292912 141.111992 
L 85.504099 136.171654 
L 85.792856 131.199151 
L 86.158556 126.205252 
L 86.600408 121.200773 
L 87.117454 116.196552 
L 87.708576 111.203427 
L 88.372493 106.232212 
L 89.107767 101.293674 
L 89.912805 96.398508 
L 90.785864 91.557317 
L 91.725054 86.780586 
L 92.728339 82.078659 
L 93.793548 77.46172 
L 94.918373 72.939768 
L 96.100378 68.522597 
L 96.100378 68.522597 
L 100.616359 69.166106 
L 105.099418 70.131046 
L 109.528149 71.412808 
L 113.881404 73.005272 
L 118.138396 74.900835 
L 122.278799 77.090445 
L 126.282841 79.563647 
L 130.131404 82.308631 
L 133.806112 85.31229 
L 137.289416 88.560282 
L 140.564685 92.037097 
L 143.616279 95.726133 
L 146.429627 99.609776 
L 148.991294 103.669482 
L 151.28905 107.885865 
L 153.311923 112.238791 
L 155.050252 116.707477 
L 156.495738 121.270583 
L 157.641479 125.906322 
L 158.482004 130.592557 
L 158.482004 130.592557 
L 153.773591 131.500938 
L 148.99489 132.387269 
L 144.156252 133.249632 
L 139.268156 134.086157 
L 134.341188 134.895034 
L 129.38602 135.67451 
L 124.413382 136.422897 
L 119.434044 137.138575 
L 114.458791 137.819994 
L 109.498398 138.465677 
L 104.563607 139.074226 
L 99.665108 139.644324 
L 94.813508 140.174735 
L 90.019315 140.664311 
L 85.292912 141.111992 
z
" style="fill:#fec488;"/>
   </g>
   <g id="patch_7">
    <path clip-path="url(#pdd8fb8aecc)" d="M 85.292912 141.111992 
L 85.652872 136.189925 
L 86.090079 131.235653 
L 86.603586 126.259906 
L 87.192281 121.27346 
L 87.854889 116.287115 
L 88.589975 111.31167 
L 89.395947 106.357901 
L 90.271059 101.436537 
L 91.213416 96.558236 
L 92.220978 91.733563 
L 93.291562 86.972967 
L 94.422848 82.28676 
L 95.612389 77.68509 
L 96.857606 73.177924 
L 98.155803 68.775023 
L 98.155803 68.775023 
L 102.680949 69.569662 
L 107.162905 70.686868 
L 111.580063 72.121255 
L 115.91113 73.865909 
L 120.135226 75.912418 
L 124.231989 78.250918 
L 128.181668 80.870133 
L 131.965224 83.757439 
L 135.564416 86.898916 
L 138.961893 90.279419 
L 142.141278 93.882652 
L 145.087242 97.691245 
L 147.785585 101.686837 
L 150.223298 105.850166 
L 152.388629 110.161162 
L 154.27114 114.599043 
L 155.861756 119.142414 
L 157.152809 123.769373 
L 158.138074 128.457615 
L 158.138074 128.457615 
L 153.449103 129.486683 
L 148.690548 130.498065 
L 143.872714 131.489568 
L 139.006036 132.459047 
L 134.101054 133.404401 
L 129.168391 134.323583 
L 124.218731 135.214602 
L 119.262792 136.075528 
L 114.311309 136.904497 
L 109.375005 137.699714 
L 104.464571 138.459456 
L 99.590642 139.182077 
L 94.763774 139.866013 
L 89.994421 140.509783 
L 85.292912 141.111992 
z
" style="fill:#feb078;"/>
   </g>
   <g id="patch_8">
    <path clip-path="url(#pdd8fb8aecc)" d="M 85.292912 141.111992 
L 85.801328 136.213032 
L 86.38667 131.281817 
L 87.047669 126.329027 
L 87.782894 121.365389 
L 88.590753 116.401652 
L 89.469497 111.448567 
L 90.417221 106.516862 
L 91.431875 101.617216 
L 92.511259 96.760243 
L 93.653036 91.956461 
L 94.854734 87.216273 
L 96.11375 82.549947 
L 97.427357 77.967588 
L 98.79271 73.479121 
L 100.206852 69.094266 
L 100.206852 69.094266 
L 104.738884 70.041233 
L 109.21724 71.31189 
L 113.620103 72.900047 
L 117.926023 74.797967 
L 122.114022 76.996404 
L 126.163696 79.484646 
L 130.055316 82.250571 
L 133.769921 85.280703 
L 137.289416 88.560282 
L 140.596653 92.073327 
L 143.675519 95.802726 
L 146.511015 99.730307 
L 149.089327 103.836937 
L 151.397893 108.102607 
L 153.425466 112.506538 
L 155.162168 117.027272 
L 156.599538 121.642785 
L 157.730574 126.330591 
L 157.730574 126.330591 
L 153.064639 127.4799 
L 148.329952 128.615867 
L 143.536768 129.736033 
L 138.695467 130.837972 
L 133.816534 131.919297 
L 128.910537 132.977666 
L 123.988101 134.010788 
L 119.059886 135.016424 
L 114.136566 135.992396 
L 109.228804 136.936592 
L 104.347228 137.846965 
L 99.502412 138.721545 
L 94.704848 139.558437 
L 89.964926 140.355828 
L 85.292912 141.111992 
z
" style="fill:#fd9b6b;"/>
   </g>
   <g id="patch_9">
    <path clip-path="url(#pdd8fb8aecc)" d="M 85.292912 141.111992 
L 85.949321 136.240953 
L 86.682335 131.337598 
L 87.490366 126.412547 
L 88.371664 121.476467 
L 89.324322 116.540048 
L 90.346274 111.613981 
L 91.435309 106.708936 
L 92.589068 101.835534 
L 93.805051 97.004332 
L 95.080626 92.225792 
L 96.413029 87.510264 
L 97.799375 82.86796 
L 99.236662 78.308934 
L 100.721776 73.843061 
L 102.251502 69.480012 
L 102.251502 69.480012 
L 106.788465 70.580693 
L 111.261017 72.006223 
L 115.647111 73.749574 
L 119.925127 75.802155 
L 124.073976 78.153845 
L 128.073207 80.793055 
L 131.903108 83.706772 
L 135.544798 86.880636 
L 138.980327 90.299001 
L 142.192759 93.945016 
L 145.16626 97.800708 
L 147.886172 101.847073 
L 150.339088 106.064164 
L 152.512915 110.431192 
L 154.396939 114.926633 
L 155.981873 119.528325 
L 157.259904 124.213586 
L 157.259904 124.213586 
L 152.620576 125.482567 
L 147.913457 126.742534 
L 143.148744 127.990757 
L 138.336754 129.224532 
L 133.487909 130.441188 
L 128.612712 131.638089 
L 123.72172 132.812644 
L 118.825526 133.962308 
L 113.934735 135.084591 
L 109.059939 136.177064 
L 104.211696 137.237359 
L 99.400505 138.263182 
L 94.636787 139.252309 
L 89.930859 140.202598 
L 85.292912 141.111992 
z
" style="fill:#fc8961;"/>
   </g>
   <g id="patch_10">
    <path clip-path="url(#pdd8fb8aecc)" d="M 85.292912 141.111992 
L 86.096705 136.273659 
L 86.976783 131.40294 
L 87.93124 126.510383 
L 88.958011 121.606585 
L 90.05487 116.702167 
L 91.219442 111.80775 
L 92.449206 106.933934 
L 93.741497 102.091275 
L 95.093517 97.290261 
L 96.502338 92.54129 
L 97.964909 87.854648 
L 99.478061 83.240484 
L 101.038518 78.708792 
L 102.6429 74.269386 
L 104.287733 69.931881 
L 104.287733 69.931881 
L 108.828084 71.187932 
L 113.292987 72.770085 
L 117.660143 74.67044 
L 121.90774 76.879504 
L 126.014565 79.386245 
L 129.960105 82.178144 
L 133.724656 85.241255 
L 137.289416 88.560282 
L 140.63658 92.118646 
L 143.749433 95.898578 
L 146.612426 99.881197 
L 149.211261 104.046613 
L 151.532958 108.374022 
L 153.565922 112.841812 
L 155.3 117.427668 
L 156.72653 122.108687 
L 156.72653 122.108687 
L 152.117353 123.496658 
L 147.441476 124.879915 
L 142.709026 126.255461 
L 137.930251 127.620319 
L 133.115503 128.971531 
L 128.275209 130.306172 
L 123.41985 131.621351 
L 118.559944 132.91422 
L 113.706016 134.181978 
L 108.868578 135.42188 
L 104.058107 136.63124 
L 99.285021 137.80744 
L 94.559659 138.947931 
L 89.892253 140.050244 
L 85.292912 141.111992 
z
" style="fill:#f8745c;"/>
   </g>
   <g id="patch_11">
    <path clip-path="url(#pdd8fb8aecc)" d="M 85.292912 141.111992 
L 86.243333 136.311119 
L 87.269723 131.477779 
L 88.369857 126.62244 
L 89.541354 121.755616 
L 90.781677 116.887849 
L 92.088139 112.029681 
L 93.45791 107.191634 
L 94.888025 102.384186 
L 96.375385 97.617748 
L 97.91677 92.902645 
L 99.508841 88.249086 
L 101.14815 83.667153 
L 102.831147 79.166766 
L 104.554187 74.757675 
L 106.313537 70.449427 
L 106.313537 70.449427 
L 110.856249 71.862882 
L 115.312111 73.603867 
L 119.658539 75.663555 
L 123.873503 78.031508 
L 127.935637 80.695724 
L 131.824353 83.642698 
L 135.51994 86.857492 
L 139.003667 90.323814 
L 142.257875 94.024092 
L 145.266071 97.939572 
L 148.013006 102.050408 
L 150.484758 106.335762 
L 152.668798 110.773915 
L 154.554057 115.34237 
L 156.130977 120.017973 
L 156.130977 120.017973 
L 151.555467 121.524131 
L 146.914473 123.029847 
L 142.218047 124.531859 
L 137.476361 126.026916 
L 132.699684 127.511779 
L 127.898361 128.983231 
L 123.08279 130.438087 
L 118.263402 131.873195 
L 113.450634 133.285447 
L 108.654909 134.671785 
L 103.886614 136.029205 
L 99.156075 137.354769 
L 94.473539 138.645605 
L 89.849146 139.898917 
L 85.292912 141.111992 
z
" style="fill:#f1605d;"/>
   </g>
   <g id="patch_12">
    <path clip-path="url(#pdd8fb8aecc)" d="M 85.292912 141.111992 
L 86.389063 136.353296 
L 87.560866 131.562042 
L 88.805783 126.748605 
L 90.121119 121.923412 
L 91.504025 117.096911 
L 92.951506 112.279557 
L 94.460427 107.481782 
L 96.027519 102.713978 
L 97.64939 97.98647 
L 99.322525 93.309498 
L 101.043302 88.69319 
L 102.807994 84.147544 
L 104.612779 79.682406 
L 106.453748 75.307446 
L 108.326915 71.032138 
L 108.326915 71.032138 
L 112.871622 72.605558 
L 117.317628 74.508205 
L 121.642017 76.730272 
L 125.8225 79.260306 
L 129.83753 82.085266 
L 133.666414 85.190593 
L 137.289416 88.560282 
L 140.687864 92.176963 
L 143.84424 96.021997 
L 146.742278 100.075566 
L 149.367039 104.316777 
L 151.704995 108.723769 
L 153.744097 113.273829 
L 155.473834 117.943506 
L 155.473834 117.943506 
L 150.935472 119.566933 
L 146.332969 121.194156 
L 141.676293 122.821652 
L 136.975531 124.445896 
L 132.240862 126.06337 
L 127.482541 127.670571 
L 122.710873 129.264018 
L 117.936192 130.84026 
L 113.168841 132.395883 
L 108.419143 133.927518 
L 103.697385 135.431849 
L 99.013794 136.905616 
L 94.378513 138.345628 
L 89.801582 139.748766 
L 85.292912 141.111992 
z
" style="fill:#e75263;"/>
   </g>
   <g id="patch_13">
    <path clip-path="url(#pdd8fb8aecc)" d="M 85.292912 141.111992 
L 86.533749 136.400148 
L 87.849924 131.655644 
L 89.238589 126.888756 
L 90.696734 122.109806 
L 92.221203 117.329147 
L 93.808693 112.55713 
L 95.455766 107.804092 
L 97.158856 103.080326 
L 98.914274 98.396063 
L 100.718217 93.761449 
L 102.566779 89.18652 
L 104.455956 84.681185 
L 106.381657 80.255202 
L 108.339712 75.918156 
L 110.325878 71.67944 
L 110.325878 71.67944 
L 114.873079 73.416114 
L 119.309156 75.484115 
L 123.610805 77.872579 
L 127.755424 80.568956 
L 131.721241 83.559082 
L 135.487419 86.827246 
L 139.034172 90.356279 
L 142.342866 94.12764 
L 145.39612 98.121516 
L 148.177891 102.316925 
L 150.673565 106.691824 
L 152.870031 111.223229 
L 154.755749 115.887334 
L 154.755749 115.887334 
L 150.25798 117.626995 
L 145.697537 119.374655 
L 141.084298 121.126528 
L 136.428254 122.878819 
L 131.739489 124.627735 
L 127.028158 126.369487 
L 122.304464 128.100303 
L 117.578638 129.816435 
L 112.860915 131.514165 
L 108.161512 133.189816 
L 103.490608 134.83976 
L 98.858318 136.460424 
L 94.274675 138.048297 
L 89.749607 139.599939 
L 85.292912 141.111992 
z
" style="fill:#d8456c;"/>
   </g>
   <g id="patch_14">
    <path clip-path="url(#pdd8fb8aecc)" d="M 85.292912 141.111992 
L 86.677249 136.451629 
L 88.136614 131.758495 
L 89.667846 127.042753 
L 91.26763 122.314617 
L 92.932501 117.584326 
L 94.658853 112.862127 
L 96.442947 108.158245 
L 98.280919 103.482868 
L 100.168789 98.846123 
L 102.102467 94.258052 
L 104.077767 89.72859 
L 106.090409 85.267548 
L 108.136035 80.884588 
L 110.210215 76.589203 
L 112.308456 72.390694 
L 112.308456 72.390694 
L 116.859788 74.294927 
L 121.286845 76.533169 
L 125.565847 79.093395 
L 129.673813 81.961856 
L 133.588678 85.123145 
L 137.289416 88.560282 
L 140.756149 92.254806 
L 143.970258 96.186874 
L 146.914479 100.335367 
L 149.572999 104.678002 
L 151.931539 109.191456 
L 153.977431 113.851486 
L 153.977431 113.851486 
L 149.52366 115.706233 
L 145.008805 117.573138 
L 140.442647 119.448158 
L 135.835072 121.327232 
L 131.196062 123.206291 
L 126.535662 125.081264 
L 121.863966 126.948091 
L 117.191092 128.802729 
L 112.52716 130.641161 
L 107.882271 132.459406 
L 103.266486 134.253525 
L 98.689801 136.019632 
L 94.162127 137.753904 
L 89.693272 139.452584 
L 85.292912 141.111992 
z
" style="fill:#c73d73;"/>
   </g>
   <g id="patch_15">
    <path clip-path="url(#pdd8fb8aecc)" d="M 85.292912 141.111992 
L 86.819421 136.507688 
L 88.42065 131.870491 
L 90.093132 127.210444 
L 91.833245 122.53764 
L 93.637219 117.862199 
L 95.501147 113.194246 
L 97.420994 108.543892 
L 99.392601 103.921208 
L 101.411697 99.336206 
L 103.473911 94.798816 
L 105.574775 90.318865 
L 107.709739 85.906055 
L 109.874181 81.569945 
L 112.063412 77.319924 
L 114.27269 73.165197 
L 114.27269 73.165197 
L 118.456396 75.056543 
L 122.525545 77.232376 
L 126.461291 79.682617 
L 130.245404 82.39592 
L 133.86036 85.359717 
L 137.289416 88.560282 
L 140.51669 91.982791 
L 143.527236 95.611394 
L 146.30711 99.429284 
L 148.843437 103.41878 
L 151.124471 107.561404 
L 153.139648 111.837971 
L 153.139648 111.837971 
L 148.733236 113.806541 
L 144.267453 115.791384 
L 139.751971 117.7882 
L 135.19657 119.792666 
L 130.611115 121.800439 
L 126.005538 123.807172 
L 121.389812 125.808519 
L 116.773936 127.800144 
L 112.167905 129.777734 
L 107.581696 131.737008 
L 103.025241 133.67372 
L 98.508408 135.583676 
L 94.04098 137.462741 
L 89.632632 139.306844 
L 85.292912 141.111992 
z
" style="fill:#b73779;"/>
   </g>
   <g id="patch_16">
    <path clip-path="url(#pdd8fb8aecc)" d="M 85.292912 141.111992 
L 86.960125 136.56827 
L 88.701754 131.991524 
L 90.514027 127.391665 
L 92.393019 122.778657 
L 94.33466 118.162489 
L 96.334745 113.55316 
L 98.388942 108.960652 
L 100.492804 104.394912 
L 102.641772 99.865827 
L 104.831193 95.383208 
L 107.056326 90.956762 
L 109.31235 86.596076 
L 111.59438 82.310594 
L 113.897474 78.109598 
L 116.216643 74.002186 
L 116.216643 74.002186 
L 120.378346 76.041153 
L 124.414857 78.363974 
L 128.307221 80.959738 
L 132.037156 83.816257 
L 135.587146 86.920113 
L 138.940518 90.256731 
L 142.081523 93.81044 
L 144.99541 97.56455 
L 147.668493 101.501431 
L 150.08822 105.602593 
L 152.243226 109.848776 
L 152.243226 109.848776 
L 147.887488 111.929795 
L 143.474212 114.03115 
L 139.012954 116.148292 
L 134.513377 118.276635 
L 129.985226 120.411569 
L 125.438309 122.54847 
L 120.882472 124.682711 
L 116.327583 126.809668 
L 111.783506 128.924737 
L 107.260083 131.023335 
L 102.76711 133.100918 
L 98.314319 135.152986 
L 93.911354 137.175095 
L 89.567749 139.162865 
L 85.292912 141.111992 
z
" style="fill:#a5317e;"/>
   </g>
   <g id="patch_17">
    <path clip-path="url(#pdd8fb8aecc)" d="M 85.292912 141.111992 
L 87.099223 136.633315 
L 88.979648 132.121472 
L 90.930115 127.586236 
L 92.9464 123.037428 
L 95.024136 118.484901 
L 97.158822 113.938515 
L 99.345837 109.408114 
L 101.580443 104.903513 
L 103.8578 100.434465 
L 106.172976 96.010652 
L 108.520957 91.641652 
L 110.896659 87.336929 
L 113.294934 83.105806 
L 115.710591 78.957447 
L 118.138396 74.900835 
L 118.138396 74.900835 
L 122.278799 77.090445 
L 126.282841 79.563647 
L 130.131404 82.308631 
L 133.806112 85.31229 
L 137.289416 88.560282 
L 140.564685 92.037097 
L 143.616279 95.726133 
L 146.429627 99.609776 
L 148.991294 103.669482 
L 151.28905 107.885865 
L 151.28905 107.885865 
L 146.987252 110.077846 
L 142.629864 112.294175 
L 138.226324 114.530052 
L 133.786168 116.780635 
L 129.319014 119.041049 
L 124.834535 121.306399 
L 120.342445 123.571778 
L 115.852472 125.83228 
L 111.37434 128.08301 
L 106.917749 130.319092 
L 102.492349 132.535685 
L 98.107726 134.727987 
L 93.773376 136.89125 
L 89.498685 139.020789 
L 85.292912 141.111992 
z
" style="fill:#932b80;"/>
   </g>
   <g id="patch_18">
    <path clip-path="url(#pdd8fb8aecc)" d="M 85.292912 141.111992 
L 87.236576 136.702758 
L 89.254057 132.260209 
L 91.340986 127.793965 
L 93.492843 123.3137 
L 95.704967 118.829117 
L 97.972567 114.349929 
L 100.290733 109.885837 
L 102.654444 105.446509 
L 105.05858 101.041558 
L 107.497934 96.680527 
L 109.967224 92.372859 
L 112.461102 88.127884 
L 114.974166 83.954796 
L 117.500974 79.862633 
L 120.036053 75.860257 
L 120.036053 75.860257 
L 124.1574 78.205024 
L 128.130467 80.833709 
L 131.935898 83.733504 
L 135.555153 86.890283 
L 138.970599 90.288665 
L 142.165597 93.912094 
L 145.124581 97.742918 
L 147.833134 101.762472 
L 150.278063 105.951174 
L 150.278063 105.951174 
L 146.033415 108.252522 
L 141.735244 110.582172 
L 137.392858 112.935078 
L 133.015661 115.306143 
L 128.613135 117.690233 
L 124.194813 120.082185 
L 119.770265 122.476817 
L 115.349073 124.868944 
L 110.940813 127.253384 
L 106.555032 129.624974 
L 102.201229 131.978578 
L 97.888832 134.309097 
L 93.627183 136.611485 
L 89.425509 138.880755 
L 85.292912 141.111992 
z
" style="fill:#832681;"/>
   </g>
   <g id="patch_19">
    <path clip-path="url(#pdd8fb8aecc)" d="M 85.292912 141.111992 
L 87.37205 136.776532 
L 89.524712 132.407596 
L 91.746234 128.014647 
L 94.031808 123.607199 
L 96.376481 119.194798 
L 98.775176 114.786999 
L 101.222699 110.393349 
L 103.713747 106.023364 
L 106.242927 101.686507 
L 108.804761 97.392173 
L 111.393699 93.149661 
L 114.004136 88.96816 
L 116.630418 84.856726 
L 119.266856 80.824262 
L 121.90774 76.879504 
L 121.90774 76.879504 
L 126.014565 79.386245 
L 129.960105 82.178144 
L 133.724656 85.241255 
L 137.289416 88.560282 
L 140.63658 92.118646 
L 143.749433 95.898578 
L 146.612426 99.881197 
L 149.211261 104.046613 
L 149.211261 104.046613 
L 145.026919 106.455625 
L 140.791234 108.896831 
L 136.513378 111.364942 
L 132.202616 113.854614 
L 127.868286 116.360454 
L 123.519773 118.877036 
L 119.166496 121.398908 
L 114.817883 123.920609 
L 110.483352 126.436679 
L 106.172291 128.941666 
L 101.894036 131.430147 
L 97.657854 133.896731 
L 93.472918 136.336077 
L 89.348294 138.742902 
L 85.292912 141.111992 
z
" style="fill:#721f81;"/>
   </g>
   <g id="patch_20">
    <path clip-path="url(#pdd8fb8aecc)" d="M 85.292912 141.111992 
L 87.505511 136.854563 
L 89.791343 132.563489 
L 92.14546 128.248065 
L 94.562762 123.917636 
L 97.038015 119.581581 
L 99.565857 115.249291 
L 102.140814 110.930149 
L 104.757308 106.633509 
L 107.409673 102.368676 
L 110.092166 98.144888 
L 112.798975 93.971292 
L 115.524239 89.856927 
L 118.262055 85.810705 
L 121.006494 81.841387 
L 123.751612 77.957572 
L 123.751612 77.957572 
L 127.852011 80.636795 
L 131.776497 83.603851 
L 135.504843 86.843447 
L 139.017832 90.338885 
L 142.297358 94.072148 
L 145.326517 98.023997 
L 148.089697 102.174061 
L 148.089697 102.174061 
L 143.968757 104.688928 
L 139.798765 107.239815 
L 135.588752 109.821196 
L 131.347836 112.42748 
L 127.085201 115.053024 
L 122.810081 117.692141 
L 118.531734 120.339115 
L 114.259425 122.988214 
L 110.002408 125.633699 
L 105.769902 128.269842 
L 101.571074 130.890933 
L 97.415018 133.491296 
L 93.310735 136.065298 
L 89.267114 138.607365 
L 85.292912 141.111992 
z
" style="fill:#601880;"/>
   </g>
   <g id="patch_21">
    <path clip-path="url(#pdd8fb8aecc)" d="M 85.292912 141.111992 
L 87.636826 136.936774 
L 90.05369 132.727734 
L 92.538269 128.493988 
L 95.085183 124.244704 
L 97.688917 119.989085 
L 100.343829 115.73635 
L 103.044172 111.495707 
L 105.784096 107.276341 
L 108.557667 103.087391 
L 111.358879 98.937929 
L 114.181664 94.836941 
L 117.019909 90.793309 
L 119.867467 86.815792 
L 122.718171 82.913003 
L 125.565847 79.093395 
L 125.565847 79.093395 
L 129.673813 81.961856 
L 133.588678 85.123145 
L 137.289416 88.560282 
L 140.756149 92.254806 
L 143.970258 96.186874 
L 146.914479 100.335367 
L 146.914479 100.335367 
L 142.859974 102.954174 
L 138.758817 105.612759 
L 134.619892 108.305361 
L 130.452163 111.026151 
L 126.264655 113.769234 
L 122.066438 116.528671 
L 117.866605 119.298485 
L 113.674251 122.072677 
L 109.498456 124.845238 
L 105.348264 127.610165 
L 101.232663 130.361469 
L 97.160566 133.093191 
L 93.140794 135.799415 
L 89.182051 138.47428 
L 85.292912 141.111992 
z
" style="fill:#51127c;"/>
   </g>
   <g id="patch_22">
    <path clip-path="url(#pdd8fb8aecc)" d="M 85.292912 141.111992 
L 87.765867 137.023085 
L 90.311491 132.900169 
L 92.924274 128.752173 
L 95.598555 124.58808 
L 98.328543 120.416909 
L 101.108326 116.247695 
L 103.931882 112.089465 
L 106.793098 107.951227 
L 109.685775 103.841943 
L 112.603649 99.770512 
L 115.540401 95.745753 
L 118.489671 91.776382 
L 121.44507 87.870996 
L 124.400199 84.038053 
L 127.348656 80.285854 
L 127.348656 80.285854 
L 131.488719 83.37167 
L 135.414181 86.759267 
L 139.102739 90.429395 
L 142.533431 94.361202 
L 145.686766 98.532344 
L 145.686766 98.532344 
L 141.701663 101.253076 
L 137.672417 104.017269 
L 133.607756 106.818935 
L 129.516482 109.652007 
L 125.407457 112.51035 
L 121.289579 115.387773 
L 117.171766 118.278043 
L 113.062938 121.174901 
L 108.971993 124.072074 
L 104.907791 126.963287 
L 100.879134 129.842277 
L 96.894748 132.70281 
L 92.963261 135.53869 
L 89.093189 138.343776 
L 85.292912 141.111992 
z
" style="fill:#3f0f72;"/>
   </g>
   <g id="patch_23">
    <path clip-path="url(#pdd8fb8aecc)" d="M 85.292912 141.111992 
L 87.892505 137.11341 
L 90.564495 133.080623 
L 93.303093 129.022365 
L 96.102371 124.947426 
L 98.956264 120.86463 
L 101.858591 116.782821 
L 104.803068 112.710838 
L 107.783317 108.657501 
L 110.792884 104.631587 
L 113.82525 100.641817 
L 116.873847 96.696832 
L 119.932074 92.805175 
L 122.993307 88.975274 
L 126.050916 85.215425 
L 129.098279 81.533771 
L 129.098279 81.533771 
L 133.315904 84.887981 
L 137.289416 88.560282 
L 140.994319 92.528033 
L 144.40777 96.766773 
L 144.40777 96.766773 
L 140.494967 99.587312 
L 136.540636 102.454919 
L 132.553341 105.363384 
L 128.541717 108.306407 
L 124.514452 111.277615 
L 120.480268 114.270572 
L 116.447903 117.278797 
L 112.42609 120.295774 
L 108.42354 123.31497 
L 104.44892 126.329845 
L 100.510839 129.333869 
L 96.617826 132.320537 
L 92.778313 135.283381 
L 89.000614 138.215983 
L 85.292912 141.111992 
z
" style="fill:#2c115f;"/>
   </g>
   <g id="patch_24">
    <path clip-path="url(#pdd8fb8aecc)" d="M 85.292912 141.111992 
L 88.016617 137.20766 
L 90.812449 133.268919 
L 93.674354 129.304299 
L 96.596133 125.322387 
L 99.571458 121.331806 
L 102.593886 117.3412 
L 105.656871 113.359212 
L 108.753778 109.394464 
L 111.877901 105.455545 
L 115.022474 101.550984 
L 118.180685 97.689239 
L 121.345696 93.878673 
L 124.510651 90.127538 
L 127.668695 86.44396 
L 130.81299 82.835915 
L 130.81299 82.835915 
L 135.202115 86.56347 
L 139.300284 90.641164 
L 143.078752 95.040395 
L 143.078752 95.040395 
L 139.241079 97.958526 
L 135.364592 100.927252 
L 131.457688 103.940144 
L 127.528828 106.990678 
L 123.586522 110.072245 
L 119.639306 113.178173 
L 115.69573 116.301734 
L 111.764336 119.436163 
L 107.853636 122.574672 
L 103.972102 125.710464 
L 100.12814 128.836747 
L 96.330074 131.946751 
L 92.586131 135.033739 
L 88.904419 138.091027 
L 85.292912 141.111992 
z
" style="fill:#1d1147;"/>
   </g>
   <g id="patch_25">
    <path clip-path="url(#pdd8fb8aecc)" d="M 85.292912 141.111992 
L 88.138079 137.305742 
L 91.05511 133.46487 
L 94.037689 129.597695 
L 97.079355 125.712593 
L 100.17352 121.817977 
L 103.313484 117.922282 
L 106.492447 114.033947 
L 109.703522 110.161391 
L 112.939756 106.313002 
L 116.19414 102.497115 
L 119.459625 98.721995 
L 122.72914 94.995816 
L 125.995602 91.32665 
L 129.251939 87.722443 
L 132.491096 84.191 
L 132.491096 84.191 
L 137.289416 88.560282 
L 141.701025 93.354915 
L 141.701025 93.354915 
L 137.941234 96.368325 
L 134.145445 99.435775 
L 130.321879 102.550621 
L 126.478817 105.706118 
L 122.624582 108.89543 
L 118.767522 112.111652 
L 114.915989 115.347816 
L 111.078327 118.596915 
L 107.262845 121.851912 
L 103.477809 125.105757 
L 99.731414 128.351402 
L 96.031776 131.581819 
L 92.386906 134.790012 
L 88.804699 137.969031 
L 85.292912 141.111992 
z
" style="fill:#100b2d;"/>
   </g>
   <g id="patch_26">
    <path clip-path="url(#pdd8fb8aecc)" d="M 85.292912 141.111992 
L 88.256772 137.407559 
L 91.292239 133.668284 
L 94.39274 129.902265 
L 97.551559 126.117658 
L 100.761855 122.322661 
L 104.016676 118.525493 
L 107.308971 114.734377 
L 110.631612 110.957524 
L 113.977401 107.203113 
L 117.339092 103.479277 
L 120.709406 99.79408 
L 124.081041 96.155503 
L 127.446697 92.571427 
L 130.799084 89.049613 
L 134.130942 85.597691 
L 134.130942 85.597691 
L 140.275948 91.711996 
L 140.275948 91.711996 
L 136.596716 94.81828 
L 132.884398 97.98196 
L 129.147034 101.196185 
L 125.392719 104.453994 
L 121.629583 107.748331 
L 117.865776 111.072062 
L 114.109451 114.417987 
L 110.368741 117.77886 
L 106.65175 121.147403 
L 102.966527 124.516319 
L 99.321054 127.878313 
L 95.723225 131.226103 
L 92.180834 134.552438 
L 88.701551 137.850116 
L 85.292912 141.111992 
z
" style="fill:#050416;"/>
   </g>
   <g id="patch_27">
    <path clip-path="url(#pdd8fb8aecc)" d="M 85.292912 141.111992 
L 88.372578 137.513011 
L 91.523601 133.878958 
L 94.739156 130.217707 
L 98.01228 126.537184 
L 101.335882 122.845362 
L 104.702766 119.150237 
L 108.105639 115.459811 
L 111.537131 111.782077 
L 114.989811 108.125 
L 118.456201 104.4965 
L 121.928793 100.904436 
L 125.400066 97.356588 
L 128.862503 93.860639 
L 132.308605 90.424161 
L 135.730908 87.054597 
L 135.730908 87.054597 
L 138.804928 90.113259 
L 135.208852 93.309918 
L 131.582696 96.567241 
L 127.934313 99.878174 
L 124.271606 103.235544 
L 120.602505 106.632081 
L 116.934959 110.060429 
L 113.276909 113.513163 
L 109.636279 116.982804 
L 106.020954 120.461839 
L 102.438763 123.942733 
L 98.897464 127.417946 
L 95.404727 130.879952 
L 91.968118 134.321254 
L 88.595078 137.734398 
z
" style="fill:#000004;"/>
   </g>
   <g id="LineCollection_1">
    <path clip-path="url(#pdd8fb8aecc)" d="M 64.086316 213.022188 
L 62.70196 212.107184 
L 61.342644 211.153399 
L 60.008948 210.16124 
L 58.701442 209.131131 
" style="fill:none;stroke:#808080;stroke-width:0.4;"/>
    <path clip-path="url(#pdd8fb8aecc)" d="M 58.701442 209.131131 
L 60.354413 210.090783 
L 62.089684 211.024124 
L 63.904914 211.929895 
L 65.797651 212.806873 
L 67.76534 213.653875 
L 69.805326 214.469756 
L 71.914854 215.253415 
L 74.091077 216.003795 
L 76.331057 216.719882 
L 78.63177 217.40071 
L 80.99011 218.04536 
L 83.402893 218.652961 
L 85.866862 219.222694 
L 88.378692 219.753788 
L 90.934991 220.245528 
L 93.532308 220.697248 
L 96.167137 221.108341 
L 98.835922 221.47825 
L 101.535059 221.806476 
" style="fill:none;stroke:#808080;stroke-width:0.4;"/>
    <path clip-path="url(#pdd8fb8aecc)" d="M 58.701442 209.131131 
L 57.420685 208.063512 
L 56.167224 206.958839 
L 54.941593 205.817584 
L 53.744317 204.640235 
L 52.575907 203.427294 
L 51.436863 202.17928 
L 50.32767 200.896725 
L 49.248802 199.580178 
L 48.200721 198.2302 
L 47.183874 196.847369 
L 46.198696 195.432276 
L 45.245607 193.985524 
L 44.325014 192.507732 
L 43.437311 190.99953 
L 42.582877 189.461564 
L 41.762076 187.894491 
L 40.97526 186.298978 
L 40.222765 184.67571 
L 39.504912 183.025377 
" style="fill:none;stroke:#808080;stroke-width:0.4;"/>
    <path clip-path="url(#pdd8fb8aecc)" d="M 39.504912 183.025377 
L 41.664622 184.279223 
L 43.931863 185.498692 
L 46.303575 186.682139 
L 48.776555 187.827966 
L 51.347465 188.934627 
L 54.012835 190.000627 
L 56.769067 191.024527 
L 59.612439 192.004946 
L 62.539113 192.940559 
L 65.545139 193.830104 
L 68.626459 194.672379 
L 71.778912 195.466248 
L 74.998243 196.210639 
L 78.280107 196.904548 
L 81.620072 197.547036 
L 85.013631 198.137238 
L 88.456201 198.674356 
L 91.943136 199.157665 
L 95.469728 199.586513 
" style="fill:none;stroke:#808080;stroke-width:0.4;"/>
    <path clip-path="url(#pdd8fb8aecc)" d="M 39.504912 183.025377 
L 38.822007 181.348686 
L 38.174343 179.646353 
L 37.562196 177.919105 
L 36.985827 176.16768 
L 36.445483 174.392825 
L 35.941395 172.5953 
L 35.473777 170.775871 
L 35.04283 168.935317 
L 34.648738 167.074423 
L 34.291669 165.193984 
L 33.971775 163.294804 
L 33.689194 161.377693 
L 33.444046 159.443471 
L 33.236435 157.492964 
L 33.06645 155.527006 
L 32.934165 153.546435 
L 32.839635 151.552098 
L 32.782901 149.544847 
L 32.763987 147.525539 
" style="fill:none;stroke:#808080;stroke-width:0.4;"/>
    <path clip-path="url(#pdd8fb8aecc)" d="M 32.763987 147.525539 
L 35.10164 148.882692 
L 37.555684 150.202636 
L 40.122806 151.48359 
L 42.799541 152.723824 
L 45.582274 153.921665 
L 48.46725 155.075495 
L 51.450573 156.183757 
L 54.528217 157.244954 
L 57.696027 158.257654 
L 60.949726 159.220491 
L 64.284922 160.132163 
L 67.697113 160.991441 
L 71.181692 161.797164 
L 74.733955 162.548245 
L 78.349108 163.24367 
L 82.022269 163.882499 
L 85.74848 164.463872 
L 89.522711 164.987002 
L 93.339867 165.451184 
" style="fill:none;stroke:#808080;stroke-width:0.4;"/>
    <path clip-path="url(#pdd8fb8aecc)" d="M 32.763987 147.525539 
L 32.782901 145.495037 
L 32.839635 143.454209 
L 32.934165 141.403925 
L 33.06645 139.345062 
L 33.236435 137.2785 
L 33.444046 135.20512 
L 33.689194 133.125809 
L 33.971775 131.041456 
L 34.291669 128.952949 
L 34.648738 126.861182 
L 35.04283 124.767048 
L 35.473777 122.671442 
L 35.941395 120.575258 
L 36.445483 118.479393 
L 36.985827 116.38474 
L 37.562196 114.292196 
L 38.174343 112.202654 
L 38.822007 110.117007 
L 39.504912 108.036145 
" style="fill:none;stroke:#808080;stroke-width:0.4;"/>
    <path clip-path="url(#pdd8fb8aecc)" d="M 39.504912 108.036145 
L 41.664622 109.289991 
L 43.931863 110.50946 
L 46.303575 111.692907 
L 48.776555 112.838734 
L 51.347465 113.945395 
L 54.012835 115.011395 
L 56.769067 116.035295 
L 59.612439 117.015714 
L 62.539113 117.951327 
L 65.545139 118.840872 
L 68.626459 119.683147 
L 71.778912 120.477016 
L 74.998243 121.221407 
L 78.280107 121.915316 
L 81.620072 122.557804 
L 85.013631 123.148006 
L 88.456201 123.685124 
L 91.943136 124.168433 
L 95.469728 124.597281 
" style="fill:none;stroke:#808080;stroke-width:0.4;"/>
    <path clip-path="url(#pdd8fb8aecc)" d="M 39.504912 108.036145 
L 40.222765 105.960958 
L 40.97526 103.892331 
L 41.762076 101.831149 
L 42.582877 99.778292 
L 43.437311 97.734637 
L 44.325014 95.701057 
L 45.245607 93.67842 
L 46.198696 91.667591 
L 47.183874 89.669428 
L 48.200721 87.684786 
L 49.248802 85.714511 
L 50.32767 83.759446 
L 51.436863 81.820425 
L 52.575907 79.898277 
L 53.744317 77.993824 
L 54.941593 76.107877 
L 56.167224 74.241244 
L 57.420685 72.394721 
L 58.701442 70.569098 
" style="fill:none;stroke:#808080;stroke-width:0.4;"/>
    <path clip-path="url(#pdd8fb8aecc)" d="M 58.701442 70.569098 
L 60.354413 71.52875 
L 62.089684 72.462091 
L 63.904914 73.367862 
L 65.797651 74.24484 
L 67.76534 75.091842 
L 69.805326 75.907723 
L 71.914854 76.691382 
L 74.091077 77.441762 
L 76.331057 78.157849 
L 78.63177 78.838677 
L 80.99011 79.483327 
L 83.402893 80.090928 
L 85.866862 80.660661 
L 88.378692 81.191755 
L 90.934991 81.683495 
L 93.532308 82.135215 
L 96.167137 82.546308 
L 98.835922 82.916217 
L 101.535059 83.244443 
" style="fill:none;stroke:#808080;stroke-width:0.4;"/>
    <path clip-path="url(#pdd8fb8aecc)" d="M 58.701442 70.569098 
L 60.008948 68.765153 
L 61.342644 66.983659 
L 62.70196 65.225375 
L 64.086316 63.491052 
L 65.49512 61.781432 
L 66.927771 60.097246 
L 68.383656 58.439211 
L 69.862154 56.808037 
L 71.362633 55.20442 
L 72.884452 53.629046 
L 74.426961 52.082587 
L 75.989501 50.565704 
L 77.571405 49.079045 
L 79.171996 47.623244 
L 80.790592 46.198925 
L 82.426501 44.806694 
L 84.079024 43.447148 
L 85.747455 42.120866 
L 87.431081 40.828415 
" style="fill:none;stroke:#808080;stroke-width:0.4;"/>
    <path clip-path="url(#pdd8fb8aecc)" d="M 87.431081 40.828415 
L 88.325662 41.347775 
L 89.264784 41.852896 
L 90.247179 42.343096 
L 91.271521 42.817713 
L 92.336427 43.276107 
L 93.440459 43.717658 
L 94.582128 44.141772 
L 95.759891 44.547874 
L 96.97216 44.935418 
L 98.217296 45.30388 
L 99.493621 45.652761 
L 100.799409 45.981593 
L 102.1329 46.28993 
L 103.492293 46.577356 
L 104.875751 46.843483 
L 106.281409 47.087953 
L 107.707369 47.310435 
L 109.151704 47.510628 
L 110.612467 47.688262 
" style="fill:none;stroke:#808080;stroke-width:0.4;"/>
    <path clip-path="url(#pdd8fb8aecc)" d="M 87.431081 40.828415 
L 89.129183 39.570348 
L 90.841037 38.347201 
L 92.565909 37.159498 
L 94.303065 36.007745 
L 96.051762 34.892435 
L 97.811252 33.814044 
L 99.580784 32.773032 
L 101.359602 31.769844 
L 103.146947 30.80491 
L 104.942055 29.87864 
L 106.744159 28.991431 
L 108.55249 28.143662 
L 110.366274 27.335694 
L 112.184737 26.567874 
L 114.007102 25.840528 
L 115.832592 25.153968 
L 117.660425 24.508487 
L 119.489822 23.904361 
L 121.32 23.341847 
" style="fill:none;stroke:#808080;stroke-width:0.4;"/>
    <path clip-path="url(#pdd8fb8aecc)" d="M 109.031221 228.724954 
L 108.51434 228.632065 
L 108.002929 228.493336 
L 107.497206 228.308825 
L 106.997388 228.078613 
L 106.503689 227.802797 
L 106.016318 227.481495 
L 105.535485 227.114844 
L 105.061394 226.703002 
L 104.594248 226.246143 
L 104.134247 225.744464 
L 103.681587 225.198177 
L 103.236462 224.607518 
L 102.799061 223.972738 
L 102.369572 223.294107 
L 101.948178 222.571917 
L 101.535059 221.806476 
" style="fill:none;stroke:#808080;stroke-width:0.4;"/>
    <path clip-path="url(#pdd8fb8aecc)" d="M 101.535059 221.806476 
L 104.260904 222.092576 
L 107.009779 222.336164 
L 109.777971 222.536911 
L 112.561745 222.694546 
L 115.357343 222.808856 
L 118.160989 222.879688 
L 120.9689 222.906944 
L 123.777285 222.890589 
L 126.582353 222.830645 
L 129.380317 222.727192 
L 132.167399 222.580371 
L 134.939839 222.390379 
L 137.693892 222.157472 
L 140.425841 221.881966 
L 143.131998 221.564232 
L 145.80871 221.204699 
L 148.452363 220.803853 
L 151.059389 220.362234 
L 153.626269 219.880439 
" style="fill:none;stroke:#808080;stroke-width:0.4;"/>
    <path clip-path="url(#pdd8fb8aecc)" d="M 101.535059 221.806476 
L 101.130391 220.99811 
L 100.734347 220.147164 
L 100.347098 219.254004 
L 99.968807 218.319009 
L 99.599636 217.342579 
L 99.239744 216.325132 
L 98.889284 215.267102 
L 98.548405 214.16894 
L 98.217254 213.031117 
L 97.895971 211.854118 
L 97.584694 210.638446 
L 97.283556 209.384619 
L 96.992686 208.093175 
L 96.712208 206.764664 
L 96.442241 205.399654 
L 96.182901 203.998728 
L 95.934299 202.562484 
L 95.696541 201.091537 
L 95.469728 199.586513 
" style="fill:none;stroke:#808080;stroke-width:0.4;"/>
    <path clip-path="url(#pdd8fb8aecc)" d="M 95.469728 199.586513 
L 99.031217 199.960321 
L 102.622795 200.278584 
L 106.239613 200.540873 
L 109.876789 200.746833 
L 113.529413 200.896187 
L 117.192553 200.988732 
L 120.861266 201.024345 
L 124.530598 201.002976 
L 128.195595 200.924655 
L 131.851311 200.789488 
L 135.49281 200.597656 
L 139.115177 200.349419 
L 142.71352 200.045112 
L 146.282984 199.685146 
L 149.818749 199.270007 
L 153.316042 198.800255 
L 156.770141 198.276524 
L 160.176385 197.699521 
L 163.530174 197.070025 
" style="fill:none;stroke:#808080;stroke-width:0.4;"/>
    <path clip-path="url(#pdd8fb8aecc)" d="M 95.469728 199.586513 
L 95.253958 198.048057 
L 95.049322 196.476825 
L 94.855908 194.873489 
L 94.673799 193.238733 
L 94.503072 191.573255 
L 94.3438 189.877768 
L 94.196052 188.152996 
L 94.05989 186.399674 
L 93.935373 184.618553 
L 93.822553 182.810393 
L 93.72148 180.975966 
L 93.632196 179.116056 
L 93.554739 177.231457 
L 93.489142 175.322975 
L 93.435434 173.391425 
L 93.393637 171.437631 
L 93.363769 169.46243 
L 93.345844 167.466663 
L 93.339867 165.451184 
" style="fill:none;stroke:#808080;stroke-width:0.4;"/>
    <path clip-path="url(#pdd8fb8aecc)" d="M 93.339867 165.451184 
L 97.194795 165.85579 
L 101.082291 166.200276 
L 104.997107 166.484175 
L 108.933958 166.707105 
L 112.887529 166.868764 
L 116.852484 166.968935 
L 120.82347 167.007481 
L 124.795126 166.984352 
L 128.762091 166.899578 
L 132.719009 166.753274 
L 136.660539 166.545636 
L 140.58136 166.276947 
L 144.47618 165.947568 
L 148.339739 165.557943 
L 152.166823 165.108599 
L 155.952266 164.600143 
L 159.690956 164.033261 
L 163.377848 163.408718 
L 167.007963 162.727357 
" style="fill:none;stroke:#808080;stroke-width:0.4;"/>
    <path clip-path="url(#pdd8fb8aecc)" d="M 93.339867 165.451184 
L 93.345844 163.416853 
L 93.363769 161.36454 
L 93.393637 159.295122 
L 93.435434 157.209481 
L 93.489142 155.10851 
L 93.554739 152.993106 
L 93.632196 150.864172 
L 93.72148 148.722618 
L 93.822553 146.569358 
L 93.935373 144.405313 
L 94.05989 142.231406 
L 94.196052 140.048566 
L 94.3438 137.857727 
L 94.503072 135.659823 
L 94.673799 133.455793 
L 94.855908 131.24658 
L 95.049322 129.033126 
L 95.253958 126.816378 
L 95.469728 124.597281 
" style="fill:none;stroke:#808080;stroke-width:0.4;"/>
    <path clip-path="url(#pdd8fb8aecc)" d="M 95.469728 124.597281 
L 99.031217 124.971089 
L 102.622795 125.289352 
L 106.239613 125.551641 
L 109.876789 125.757601 
L 113.529413 125.906955 
L 117.192553 125.9995 
L 120.861266 126.035113 
L 124.530598 126.013744 
L 128.195595 125.935423 
L 131.851311 125.800256 
L 135.49281 125.608424 
L 139.115177 125.360187 
L 142.71352 125.05588 
L 146.282984 124.695914 
L 149.818749 124.280775 
L 153.316042 123.811023 
L 156.770141 123.287292 
L 160.176385 122.710289 
L 163.530174 122.080793 
" style="fill:none;stroke:#808080;stroke-width:0.4;"/>
    <path clip-path="url(#pdd8fb8aecc)" d="M 95.469728 124.597281 
L 95.696541 122.376785 
L 95.934299 120.155837 
L 96.182901 117.935387 
L 96.442241 115.716382 
L 96.712208 113.499771 
L 96.992686 111.286501 
L 97.283556 109.077516 
L 97.584694 106.873761 
L 97.895971 104.676177 
L 98.217254 102.485703 
L 98.548405 100.303274 
L 98.889284 98.129823 
L 99.239744 95.966277 
L 99.599636 93.813563 
L 99.968807 91.672597 
L 100.347098 89.544297 
L 100.734347 87.429569 
L 101.130391 85.329319 
L 101.535059 83.244443 
" style="fill:none;stroke:#808080;stroke-width:0.4;"/>
    <path clip-path="url(#pdd8fb8aecc)" d="M 101.535059 83.244443 
L 104.260904 83.530543 
L 107.009779 83.774131 
L 109.777971 83.974878 
L 112.561745 84.132513 
L 115.357343 84.246823 
L 118.160989 84.317655 
L 120.9689 84.344911 
L 123.777285 84.328556 
L 126.582353 84.268612 
L 129.380317 84.165159 
L 132.167399 84.018338 
L 134.939839 83.828346 
L 137.693892 83.595439 
L 140.425841 83.319933 
L 143.131998 83.002199 
L 145.80871 82.642666 
L 148.452363 82.24182 
L 151.059389 81.800201 
L 153.626269 81.318406 
" style="fill:none;stroke:#808080;stroke-width:0.4;"/>
    <path clip-path="url(#pdd8fb8aecc)" d="M 101.535059 83.244443 
L 101.948178 81.175831 
L 102.369572 79.124367 
L 102.799061 77.090928 
L 103.236462 75.076383 
L 103.681587 73.081591 
L 104.134247 71.107404 
L 104.594248 69.154667 
L 105.061394 67.224213 
L 105.535485 65.316867 
L 106.016318 63.433444 
L 106.503689 61.574748 
L 106.997388 59.741573 
L 107.497206 57.934702 
L 108.002929 56.154908 
L 108.51434 54.40295 
L 109.031221 52.679576 
L 109.553352 50.985523 
L 110.080509 49.321515 
L 110.612467 47.688262 
" style="fill:none;stroke:#808080;stroke-width:0.4;"/>
    <path clip-path="url(#pdd8fb8aecc)" d="M 110.612467 47.688262 
L 112.087684 47.843099 
L 113.575364 47.974928 
L 115.073499 48.083571 
L 116.580067 48.168883 
L 118.093033 48.230747 
L 119.610356 48.269081 
L 121.129986 48.283832 
L 122.649873 48.274981 
L 124.167965 48.242539 
L 125.682212 48.186551 
L 127.19057 48.107092 
L 128.691004 48.004268 
L 130.181486 47.87822 
L 131.660007 47.729118 
L 133.124568 47.557161 
L 134.573194 47.362583 
L 136.003929 47.145647 
L 137.414842 46.906645 
L 138.804027 46.645899 
" style="fill:none;stroke:#808080;stroke-width:0.4;"/>
    <path clip-path="url(#pdd8fb8aecc)" d="M 110.612467 47.688262 
L 111.148999 46.086463 
L 111.689875 44.5168 
L 112.234866 42.979945 
L 112.783737 41.476555 
L 113.336255 40.007271 
L 113.892183 38.572721 
L 114.451284 37.173517 
L 115.013319 35.810259 
L 115.578048 34.483527 
L 116.145229 33.193889 
L 116.714622 31.941895 
L 117.285981 30.728081 
L 117.859064 29.552965 
L 118.433625 28.417048 
L 119.009419 27.320816 
L 119.5862 26.264738 
L 120.163722 25.249264 
L 120.741737 24.274828 
L 121.32 23.341847 
" style="fill:none;stroke:#808080;stroke-width:0.4;"/>
    <path clip-path="url(#pdd8fb8aecc)" d="M 142.229998 227.385452 
L 143.065067 227.196937 
L 143.890847 226.963196 
L 144.706985 226.684327 
L 145.513134 226.36045 
L 146.308947 225.991703 
L 147.094087 225.578244 
L 147.868216 225.120249 
L 148.631005 224.617915 
L 149.382128 224.071455 
L 150.121263 223.481103 
L 150.848096 222.847111 
L 151.562315 222.16975 
L 152.263615 221.44931 
L 152.951698 220.686097 
L 153.626269 219.880439 
" style="fill:none;stroke:#808080;stroke-width:0.4;"/>
    <path clip-path="url(#pdd8fb8aecc)" d="M 153.626269 219.880439 
L 156.149536 219.359118 
L 158.625785 218.798975 
L 161.051673 218.200767 
L 163.423925 217.565299 
L 165.739339 216.893432 
L 167.994788 216.18607 
L 170.187229 215.444171 
L 172.313702 214.668734 
L 174.371335 213.860806 
L 176.357352 213.021479 
L 178.26907 212.151886 
L 180.103911 211.2532 
L 181.859395 210.326634 
L 183.533155 209.37344 
L 185.122929 208.394904 
L 186.626573 207.392347 
L 188.042055 206.367122 
" style="fill:none;stroke:#808080;stroke-width:0.4;"/>
    <path clip-path="url(#pdd8fb8aecc)" d="M 153.626269 219.880439 
L 154.287039 219.032679 
L 154.933727 218.14318 
L 155.566056 217.212321 
L 156.183757 216.2405 
L 156.786565 215.228132 
L 157.374222 214.17565 
L 157.946479 213.083503 
L 158.50309 211.952157 
L 159.043818 210.782097 
L 159.568431 209.573821 
L 160.076706 208.327847 
L 160.568425 207.044705 
L 161.043379 205.724945 
L 161.501364 204.36913 
L 161.942185 202.977839 
L 162.365654 201.551667 
L 162.771589 200.091222 
L 163.159818 198.597129 
L 163.530174 197.070025 
" style="fill:none;stroke:#808080;stroke-width:0.4;"/>
    <path clip-path="url(#pdd8fb8aecc)" d="M 163.530174 197.070025 
L 166.826982 196.388887 
L 170.062357 195.657025 
L 173.231932 194.875427 
L 176.331429 194.045149 
L 179.356663 193.167312 
L 182.30355 192.2431 
L 185.168112 191.273761 
L 187.946482 190.260604 
L 190.63491 189.204996 
L 193.229765 188.108363 
L 195.727546 186.972184 
L 198.12488 185.797994 
L 200.418532 184.587378 
L 202.605404 183.341969 
L 204.682544 182.06345 
L 206.647149 180.753546 
L 208.496566 179.414026 
L 210.228299 178.046697 
L 211.84001 176.653406 
" style="fill:none;stroke:#808080;stroke-width:0.4;"/>
    <path clip-path="url(#pdd8fb8aecc)" d="M 163.530174 197.070025 
L 163.882499 195.510564 
L 164.216643 193.919411 
L 164.532463 192.297246 
L 164.829824 190.644762 
L 165.108599 188.962665 
L 165.36867 187.251673 
L 165.609924 185.512517 
L 165.832258 183.745941 
L 166.035579 181.952698 
L 166.219799 180.133555 
L 166.384839 178.289288 
L 166.530629 176.420687 
L 166.657106 174.528548 
L 166.764217 172.61368 
L 166.851916 170.676901 
L 166.920165 168.719039 
L 166.968935 166.74093 
L 166.998205 164.743418 
L 167.007963 162.727357 
" style="fill:none;stroke:#808080;stroke-width:0.4;"/>
    <path clip-path="url(#pdd8fb8aecc)" d="M 167.007963 162.727357 
L 170.576402 161.990098 
L 174.078347 161.197936 
L 177.50907 160.351941 
L 180.863941 159.453255 
L 184.138431 158.50309 
L 187.328119 157.50273 
L 190.428698 156.453525 
L 193.435985 155.356892 
L 196.345918 154.21431 
L 199.154569 153.027323 
L 201.858148 151.797532 
L 204.453004 150.526598 
L 206.935634 149.216236 
L 209.302687 147.868216 
L 211.550967 146.484357 
L 213.677441 145.066527 
L 215.679235 143.616641 
L 217.55365 142.136655 
L 219.298153 140.628568 
" style="fill:none;stroke:#808080;stroke-width:0.4;"/>
    <path clip-path="url(#pdd8fb8aecc)" d="M 167.007963 162.727357 
L 166.998205 160.693608 
L 166.968935 158.64304 
L 166.920165 156.576529 
L 166.851916 154.494958 
L 166.764217 152.399215 
L 166.657106 150.290197 
L 166.530629 148.168803 
L 166.384839 146.03594 
L 166.219799 143.89252 
L 166.035579 141.739457 
L 165.832258 139.577672 
L 165.609924 137.408088 
L 165.36867 135.231632 
L 165.108599 133.049232 
L 164.829824 130.861823 
L 164.532463 128.670338 
L 164.216643 126.475712 
L 163.882499 124.278885 
L 163.530174 122.080793 
" style="fill:none;stroke:#808080;stroke-width:0.4;"/>
    <path clip-path="url(#pdd8fb8aecc)" d="M 163.530174 122.080793 
L 166.826982 121.399655 
L 170.062357 120.667793 
L 173.231932 119.886195 
L 176.331429 119.055918 
L 179.356663 118.17808 
L 182.30355 117.253868 
L 185.168112 116.284529 
L 187.946482 115.271372 
L 190.63491 114.215764 
L 193.229765 113.119131 
L 195.727546 111.982952 
L 198.12488 110.808762 
L 200.418532 109.598146 
L 202.605404 108.352738 
L 204.682544 107.074218 
L 206.647149 105.764315 
L 208.496566 104.424794 
L 210.228299 103.057466 
L 211.84001 101.664174 
" style="fill:none;stroke:#808080;stroke-width:0.4;"/>
    <path clip-path="url(#pdd8fb8aecc)" d="M 163.530174 122.080793 
L 163.159818 119.882377 
L 162.771589 117.684575 
L 162.365654 115.488325 
L 161.942185 113.294567 
L 161.501364 111.104237 
L 161.043379 108.918271 
L 160.568425 106.737602 
L 160.076706 104.563162 
L 159.568431 102.395881 
L 159.043818 100.236683 
L 158.50309 98.086491 
L 157.946479 95.946224 
L 157.374222 93.816795 
L 156.786565 91.699115 
L 156.183757 89.594089 
L 155.566056 87.502614 
L 154.933727 85.425585 
L 154.287039 83.363889 
L 153.626269 81.318406 
" style="fill:none;stroke:#808080;stroke-width:0.4;"/>
    <path clip-path="url(#pdd8fb8aecc)" d="M 153.626269 81.318406 
L 156.149536 80.797085 
L 158.625785 80.236943 
L 161.051673 79.638734 
L 163.423925 79.003266 
L 165.739339 78.331399 
L 167.994788 77.624037 
L 170.187229 76.882138 
L 172.313702 76.106701 
L 174.371335 75.298773 
L 176.357352 74.459447 
L 178.26907 73.589853 
L 180.103911 72.691167 
L 181.859395 71.764601 
L 183.533155 70.811407 
L 185.122929 69.832871 
L 186.626573 68.830314 
L 188.042055 67.805089 
L 189.367466 66.758581 
L 190.601016 65.692203 
" style="fill:none;stroke:#808080;stroke-width:0.4;"/>
    <path clip-path="url(#pdd8fb8aecc)" d="M 153.626269 81.318406 
L 152.951698 79.290011 
L 152.263615 77.27957 
L 151.562315 75.287941 
L 150.848096 73.315975 
L 150.121263 71.364516 
L 149.382128 69.434395 
L 148.631005 67.526439 
L 147.868216 65.641461 
L 147.094087 63.780267 
L 146.308947 61.943652 
L 145.513134 60.132401 
L 144.706985 58.347287 
L 143.890847 56.589073 
L 143.065067 54.85851 
L 142.229998 53.156337 
L 141.385998 51.483281 
L 140.533425 49.840057 
L 139.672646 48.227367 
L 138.804027 46.645899 
" style="fill:none;stroke:#808080;stroke-width:0.4;"/>
    <path clip-path="url(#pdd8fb8aecc)" d="M 138.804027 46.645899 
L 140.169609 46.363762 
L 141.509745 46.060615 
L 142.822626 45.736867 
L 144.10648 45.392954 
L 145.359573 45.029342 
L 146.580213 44.646521 
L 147.766754 44.245008 
L 148.917592 43.825344 
L 150.031176 43.388097 
L 151.106 42.933857 
L 152.140615 42.463236 
L 153.133623 41.976871 
L 154.083685 41.475417 
L 154.989517 40.959552 
L 155.849896 40.429972 
L 156.663662 39.887392 
L 157.429716 39.332545 
L 158.147023 38.766179 
L 158.814616 38.189059 
" style="fill:none;stroke:#808080;stroke-width:0.4;"/>
    <path clip-path="url(#pdd8fb8aecc)" d="M 138.804027 46.645899 
L 137.927939 45.09633 
L 137.044757 43.579321 
L 136.154857 42.09552 
L 135.258621 40.645562 
L 134.356431 39.230064 
L 133.448672 37.849633 
L 132.535732 36.504857 
L 131.618001 35.196312 
L 130.695871 33.924556 
L 129.769736 32.690132 
L 128.839992 31.493568 
L 127.907035 30.335375 
L 126.971264 29.216047 
L 126.03308 28.136063 
L 125.092882 27.095884 
L 124.151073 26.095955 
L 123.208054 25.136702 
L 122.264229 24.218535 
L 121.32 23.341847 
" style="fill:none;stroke:#808080;stroke-width:0.4;"/>
    <path clip-path="url(#pdd8fb8aecc)" d="M 194.760905 200.647862 
L 196.085568 199.377266 
L 197.378293 198.073326 
L 198.63853 196.7366 
L 199.865738 195.367658 
L 201.059394 193.967086 
L 202.218988 192.535481 
L 203.344025 191.073456 
L 204.434024 189.581634 
L 205.48852 188.060653 
L 206.507061 186.511163 
L 207.489214 184.933825 
L 208.434558 183.329313 
L 209.342689 181.698314 
L 210.21322 180.041522 
L 211.045779 178.359647 
L 211.84001 176.653406 
" style="fill:none;stroke:#808080;stroke-width:0.4;"/>
    <path clip-path="url(#pdd8fb8aecc)" d="M 211.84001 176.653406 
L 213.329524 175.236034 
L 214.694828 173.796493 
L 215.934081 172.336727 
L 217.04561 170.858708 
L 218.027913 169.364429 
L 218.879666 167.855908 
" style="fill:none;stroke:#808080;stroke-width:0.4;"/>
    <path clip-path="url(#pdd8fb8aecc)" d="M 211.84001 176.653406 
L 212.595574 174.923529 
L 213.312148 173.170754 
L 213.989427 171.39583 
L 214.627119 169.599516 
L 215.224955 167.782578 
L 215.782677 165.945793 
L 216.300048 164.089945 
L 216.776846 162.215828 
L 217.212869 160.324241 
L 217.607929 158.415992 
L 217.961859 156.491898 
L 218.274506 154.552779 
L 218.545738 152.599465 
L 218.775438 150.632788 
L 218.963508 148.653591 
L 219.109868 146.662717 
L 219.214456 144.661018 
L 219.277227 142.649348 
L 219.298153 140.628568 
" style="fill:none;stroke:#808080;stroke-width:0.4;"/>
    <path clip-path="url(#pdd8fb8aecc)" d="M 219.298153 140.628568 
L 220.910391 139.094415 
L 222.388186 137.536267 
L 223.729544 135.956228 
L 224.932653 134.356431 
L 225.995891 132.739035 
L 226.917821 131.106224 
L 227.697199 129.460203 
L 228.332973 127.803192 
L 228.824284 126.137429 
L 229.170469 124.465163 
L 229.371062 122.788652 
" style="fill:none;stroke:#808080;stroke-width:0.4;"/>
    <path clip-path="url(#pdd8fb8aecc)" d="M 219.298153 140.628568 
L 219.277227 138.599539 
L 219.214456 136.563129 
L 219.109868 134.520207 
L 218.963508 132.471647 
L 218.775438 130.418324 
L 218.545738 128.361113 
L 218.274506 126.300895 
L 217.961859 124.23855 
L 217.607929 122.174958 
L 217.212869 120.111 
L 216.776846 118.047559 
L 216.300048 115.985516 
L 215.782677 113.925751 
L 215.224955 111.869146 
L 214.627119 109.816577 
L 213.989427 107.768922 
L 213.312148 105.727055 
L 212.595574 103.69185 
L 211.84001 101.664174 
" style="fill:none;stroke:#808080;stroke-width:0.4;"/>
    <path clip-path="url(#pdd8fb8aecc)" d="M 211.84001 101.664174 
L 213.329524 100.246802 
L 214.694828 98.807261 
L 215.934081 97.347496 
L 217.04561 95.869476 
L 218.027913 94.375197 
L 218.879666 92.866677 
L 219.599717 91.345951 
L 220.187095 89.815072 
L 220.641008 88.276108 
L 220.960841 86.731136 
L 221.146165 85.182241 
L 221.196727 83.631515 
L 221.112461 82.08105 
L 220.893479 80.53294 
L 220.540078 78.989274 
L 220.052735 77.452137 
L 219.432107 75.923604 
" style="fill:none;stroke:#808080;stroke-width:0.4;"/>
    <path clip-path="url(#pdd8fb8aecc)" d="M 211.84001 101.664174 
L 211.045779 99.644895 
L 210.21322 97.634875 
L 209.342689 95.634972 
L 208.434558 93.646041 
L 207.489214 91.668932 
L 206.507061 89.704488 
L 205.48852 87.75355 
L 204.434024 85.81695 
L 203.344025 83.895515 
L 202.218988 81.990067 
L 201.059394 80.10142 
L 199.865738 78.230379 
L 198.63853 76.377746 
L 197.378293 74.54431 
L 196.085568 72.730855 
L 194.760905 70.938155 
L 193.40487 69.166977 
L 192.018043 67.418077 
L 190.601016 65.692203 
" style="fill:none;stroke:#808080;stroke-width:0.4;"/>
    <path clip-path="url(#pdd8fb8aecc)" d="M 190.601016 65.692203 
L 191.741041 64.607393 
L 192.786 63.505616 
L 193.734483 62.38836 
L 194.58521 61.257132 
L 195.337032 60.113461 
L 195.988935 58.958889 
L 196.540039 57.794976 
L 196.989599 56.623293 
L 197.337008 55.44542 
L 197.581798 54.26295 
L 197.723639 53.077477 
L 197.762337 51.890602 
L 197.697843 50.703928 
L 197.530242 49.519056 
L 197.25976 48.337585 
L 196.886764 47.161111 
L 196.411756 45.991223 
L 195.835377 44.829498 
L 195.158407 43.677506 
" style="fill:none;stroke:#808080;stroke-width:0.4;"/>
    <path clip-path="url(#pdd8fb8aecc)" d="M 190.601016 65.692203 
L 189.154395 63.99009 
L 187.678798 62.312467 
L 186.174854 60.66005 
L 184.643206 59.033545 
L 183.084508 57.433646 
L 181.499427 55.861038 
L 179.888639 54.316392 
L 178.252833 52.800367 
L 176.592707 51.313611 
L 174.90897 49.85676 
L 173.202342 48.430436 
L 171.473552 47.035247 
L 169.723337 45.671791 
L 167.952447 44.340649 
L 166.161636 43.042389 
L 164.351671 41.777568 
L 162.523324 40.546724 
L 160.677376 39.350384 
L 158.814616 38.189059 
" style="fill:none;stroke:#808080;stroke-width:0.4;"/>
    <path clip-path="url(#pdd8fb8aecc)" d="M 158.814616 38.189059 
L 159.431593 37.601964 
L 159.99712 37.005686 
L 160.510436 36.401032 
L 160.970846 35.788816 
L 161.377729 35.169865 
L 161.730537 34.545016 
L 162.028792 33.91511 
L 162.272092 33.281 
L 162.460108 32.64354 
L 162.592588 32.003592 
L 162.669351 31.362018 
L 162.690295 30.719686 
L 162.655391 30.077463 
L 162.564686 29.436215 
L 162.418302 28.796807 
L 162.216438 28.160104 
L 161.959365 27.526965 
L 161.647432 26.898244 
L 161.281058 26.274791 
" style="fill:none;stroke:#808080;stroke-width:0.4;"/>
    <path clip-path="url(#pdd8fb8aecc)" d="M 158.814616 38.189059 
L 156.93584 37.063244 
L 155.041849 35.973421 
L 153.133454 34.920055 
L 151.21147 33.903596 
L 149.276716 32.924479 
L 147.330021 31.983121 
L 145.372215 31.079925 
L 143.404134 30.215277 
L 141.42662 29.389545 
L 139.440517 28.603083 
L 137.446674 27.856227 
L 135.445942 27.149295 
L 133.439176 26.48259 
L 131.427232 25.856396 
L 129.410972 25.270981 
L 127.391255 24.726595 
L 125.368945 24.22347 
L 123.344905 23.761822 
L 121.32 23.341847 
" style="fill:none;stroke:#808080;stroke-width:0.4;"/>
    <path clip-path="url(#pdd8fb8aecc)" d="M 212.110771 62.635496 
L 211.025228 61.008208 
L 209.901367 59.406684 
L 208.739667 57.831607 
L 207.540623 56.28365 
L 206.30475 54.763475 
L 205.032573 53.27173 
L 203.724637 51.809053 
L 202.381501 50.376069 
L 201.003739 48.97339 
L 199.591937 47.601615 
L 198.146701 46.26133 
L 196.668647 44.953107 
L 195.158407 43.677506 
" style="fill:none;stroke:#808080;stroke-width:0.4;"/>
    <path clip-path="url(#pdd8fb8aecc)" d="M 195.158407 43.677506 
L 194.381758 42.536801 
L 193.506479 41.408924 
L 192.533751 40.295397 
L 191.464889 39.197724 
L 190.301334 38.117385 
L 189.044658 37.05584 
" style="fill:none;stroke:#808080;stroke-width:0.4;"/>
    <path clip-path="url(#pdd8fb8aecc)" d="M 195.158407 43.677506 
L 193.616625 42.435071 
L 192.043961 41.226333 
L 190.441085 40.051808 
L 188.808684 38.911999 
L 187.147454 37.807391 
L 185.458104 36.738457 
L 183.741357 35.705654 
L 181.997945 34.709422 
L 180.228614 33.750187 
L 178.434119 32.828359 
L 176.615226 31.944332 
L 174.772714 31.098483 
L 172.907368 30.291174 
L 171.019986 29.522749 
L 169.111374 28.793536 
L 167.182347 28.103848 
L 165.233729 27.453979 
L 163.266352 26.844207 
L 161.281058 26.274791 
" style="fill:none;stroke:#808080;stroke-width:0.4;"/>
    <path clip-path="url(#pdd8fb8aecc)" d="M 161.281058 26.274791 
L 160.860738 25.657446 
L 160.387041 25.047043 
L 159.860605 24.444407 
L 159.28214 23.85035 
L 158.652429 23.265675 
L 157.972321 22.691171 
L 157.242733 22.127613 
L 156.464652 21.575763 
L 155.639127 21.036365 
L 154.767273 20.510148 
L 153.850267 19.997821 
L 152.889346 19.500077 
L 151.885808 19.017587 
L 150.841008 18.551002 
L 149.756356 18.100954 
L 148.633316 17.668048 
L 147.473404 17.25287 
L 146.278187 16.85598 
L 145.049277 16.477914 
" style="fill:none;stroke:#808080;stroke-width:0.4;"/>
    <path clip-path="url(#pdd8fb8aecc)" d="M 161.281058 26.274791 
L 159.278693 25.745975 
L 157.260114 25.257985 
L 155.226182 24.81103 
L 153.177767 24.4053 
L 151.115743 24.040969 
L 149.040992 23.718192 
L 146.954399 23.437107 
L 144.856856 23.197835 
L 142.749258 23.000477 
L 140.632507 22.845118 
L 138.507506 22.731824 
L 136.375164 22.660644 
L 134.23639 22.631607 
L 132.092099 22.644727 
L 129.943206 22.699998 
L 127.79063 22.797396 
L 125.635289 22.93688 
L 123.478106 23.118389 
L 121.32 23.341847 
" style="fill:none;stroke:#808080;stroke-width:0.4;"/>
    <path clip-path="url(#pdd8fb8aecc)" d="M 151.953096 17.643983 
L 150.83235 17.33827 
L 149.698997 17.076974 
L 148.553521 16.860208 
L 147.396412 16.688063 
L 146.228164 16.560613 
L 145.049277 16.477914 
" style="fill:none;stroke:#808080;stroke-width:0.4;"/>
    <path clip-path="url(#pdd8fb8aecc)" d="M 145.049277 16.477914 
L 143.788333 16.119181 
L 142.497059 15.780268 
L 141.177196 15.46163 
L 139.830527 15.163698 
L 138.45887 14.886874 
L 137.064076 14.631533 
L 135.648029 14.398018 
L 134.212639 14.186645 
L 132.759845 13.997699 
L 131.291607 13.831435 
L 129.809909 13.688078 
L 128.316749 13.567822 
L 126.814144 13.470828 
L 125.304122 13.397228 
L 123.788722 13.34712 
L 122.269989 13.320573 
L 120.749974 13.317623 
L 119.230729 13.338273 
L 117.714303 13.382495 
" style="fill:none;stroke:#808080;stroke-width:0.4;"/>
    <path clip-path="url(#pdd8fb8aecc)" d="M 145.049277 16.477914 
L 143.860252 16.439999 
L 142.6616 16.446885 
L 141.453831 16.49857 
L 140.237461 16.595031 
L 139.013011 16.736226 
L 137.781003 16.922097 
L 136.541963 17.152563 
L 135.296421 17.427525 
L 134.044908 17.746867 
L 132.78796 18.110452 
L 131.526114 18.518125 
L 130.259907 18.969711 
L 128.989882 19.465018 
L 127.71658 20.003833 
L 126.440546 20.585928 
L 125.162325 21.211053 
L 123.882462 21.878941 
L 122.601505 22.589307 
L 121.32 23.341847 
" style="fill:none;stroke:#808080;stroke-width:0.4;"/>
    <path clip-path="url(#pdd8fb8aecc)" d="M 117.357653 13.286467 
L 117.53517 13.311412 
L 117.714303 13.382495 
" style="fill:none;stroke:#808080;stroke-width:0.4;"/>
    <path clip-path="url(#pdd8fb8aecc)" d="M 117.714303 13.382495 
L 116.202745 13.45023 
L 114.698096 13.541387 
L 113.202385 13.655842 
L 111.717633 13.79344 
L 110.245844 13.953997 
L 108.789004 14.137295 
L 107.34908 14.343087 
L 105.928017 14.571095 
L 104.527732 14.821011 
L 103.150116 15.092498 
L 101.797028 15.385189 
L 100.470296 15.69869 
L 99.171709 16.032577 
L 97.903022 16.386399 
L 96.665946 16.759678 
L 95.462153 17.151912 
L 94.293266 17.562569 
L 93.160864 17.991097 
L 92.066475 18.436916 
" style="fill:none;stroke:#808080;stroke-width:0.4;"/>
    <path clip-path="url(#pdd8fb8aecc)" d="M 117.714303 13.382495 
L 117.894977 13.499685 
L 118.077114 13.662932 
L 118.260636 13.872167 
L 118.445465 14.1273 
L 118.631522 14.428222 
L 118.818728 14.774805 
L 119.007001 15.1669 
L 119.196263 15.60434 
L 119.386432 16.086938 
L 119.577427 16.614488 
L 119.769167 17.186765 
L 119.961569 17.803525 
L 120.154551 18.464503 
L 120.348031 19.169417 
L 120.541926 19.917967 
L 120.736153 20.709832 
L 120.93063 21.544675 
L 121.125274 22.422138 
L 121.32 23.341847 
" style="fill:none;stroke:#808080;stroke-width:0.4;"/>
    <path clip-path="url(#pdd8fb8aecc)" d="M 22.729956 77.069116 
L 22.209223 78.604297 
L 21.822285 80.146525 
" style="fill:none;stroke:#808080;stroke-width:0.4;"/>
    <path clip-path="url(#pdd8fb8aecc)" d="M 52.644169 37.850181 
L 51.457182 38.925957 
L 50.364506 40.019434 
L 49.367616 41.129138 
L 48.467859 42.25357 
L 47.666449 43.391211 
L 46.964468 44.540527 
L 46.362863 45.699965 
L 45.862447 46.86796 
L 45.463895 48.042936 
L 45.167745 49.223307 
" style="fill:none;stroke:#808080;stroke-width:0.4;"/>
    <path clip-path="url(#pdd8fb8aecc)" d="M 79.509563 21.626121 
L 80.841085 21.098847 
L 82.189898 20.614384 
L 83.555425 20.17294 
L 84.937085 19.774702 
L 86.334286 19.419841 
L 87.746432 19.108508 
L 89.172919 18.840836 
L 90.613139 18.616941 
L 92.066475 18.436916 
" style="fill:none;stroke:#808080;stroke-width:0.4;"/>
    <path clip-path="url(#pdd8fb8aecc)" d="M 92.066475 18.436916 
L 91.011578 18.899425 
L 89.997595 19.377998 
L 89.025896 19.871991 
L 88.097793 20.380736 
L 87.214538 20.903547 
L 86.377324 21.439718 
L 85.587281 21.988524 
L 84.845475 22.549225 
L 84.152908 23.121065 
L 83.510515 23.703271 
L 82.919163 24.295057 
L 82.379651 24.895624 
L 81.892706 25.504162 
L 81.458986 26.119849 
L 81.079076 26.741854 
L 80.75349 27.369337 
L 80.482667 28.001452 
L 80.266972 28.637344 
L 80.106697 29.276156 
" style="fill:none;stroke:#808080;stroke-width:0.4;"/>
    <path clip-path="url(#pdd8fb8aecc)" d="M 92.066475 18.436916 
L 93.532308 18.30084 
L 95.01001 18.20877 
L 96.498952 18.160745 
L 97.998496 18.156787 
L 99.508002 18.196897 
L 101.026826 18.281057 
L 102.554318 18.409232 
L 104.089826 18.581367 
L 105.632694 18.797389 
L 107.182263 19.057205 
L 108.737872 19.360704 
L 110.298855 19.707757 
L 111.864546 20.098215 
L 113.434277 20.531912 
L 115.007375 21.008661 
L 116.58317 21.528261 
L 118.160989 22.090488 
L 119.740157 22.695103 
L 121.32 23.341847 
" style="fill:none;stroke:#808080;stroke-width:0.4;"/>
    <path clip-path="url(#pdd8fb8aecc)" d="M 54.258076 206.107436 
L 55.651215 207.138112 
L 57.133004 208.146464 
L 58.701442 209.131131 
" style="fill:none;stroke:#808080;stroke-width:0.4;"/>
    <path clip-path="url(#pdd8fb8aecc)" d="M 23.567934 167.476791 
L 24.386862 168.988555 
L 25.336645 170.486584 
L 26.416001 171.968856 
L 27.623473 173.433371 
L 28.957431 174.878151 
L 30.416074 176.301247 
L 31.997433 177.700736 
L 33.699373 179.074729 
L 35.519598 180.421373 
L 37.455648 181.738848 
L 39.504912 183.025377 
" style="fill:none;stroke:#808080;stroke-width:0.4;"/>
    <path clip-path="url(#pdd8fb8aecc)" d="M 13.241575 122.369125 
L 13.405719 124.046345 
L 13.715543 125.719884 
L 14.170627 127.387484 
L 14.770358 129.046893 
L 15.513926 130.695871 
L 16.400327 132.332192 
L 17.428365 133.953647 
L 18.596652 135.558047 
L 19.90361 137.143227 
L 21.347476 138.707045 
L 22.926299 140.247393 
L 24.63795 141.762189 
L 26.480117 143.249389 
L 28.450314 144.706985 
L 30.54588 146.13301 
L 32.763987 147.525539 
" style="fill:none;stroke:#808080;stroke-width:0.4;"/>
    <path clip-path="url(#pdd8fb8aecc)" d="M 15.482308 99.286207 
L 15.91655 97.31616 
L 16.395817 95.356367 
L 16.919904 93.407664 
L 17.488587 91.470885 
L 18.101624 89.546856 
L 18.758752 87.636399 
L 19.459691 85.740331 
L 20.204141 83.859462 
L 20.991784 81.994594 
L 21.822285 80.146525 
" style="fill:none;stroke:#808080;stroke-width:0.4;"/>
    <path clip-path="url(#pdd8fb8aecc)" d="M 21.822285 80.146525 
L 21.569663 81.69372 
L 21.451701 83.243792 
L 21.468555 84.79465 
L 21.620205 86.344199 
L 21.906444 87.890347 
L 22.326887 89.431009 
L 22.880966 90.964102 
L 23.567934 92.487559 
L 24.386862 93.999323 
L 25.336645 95.497352 
L 26.416001 96.979624 
L 27.623473 98.444139 
L 28.957431 99.88892 
L 30.416074 101.312015 
L 31.997433 102.711504 
L 33.699373 104.085498 
L 35.519598 105.432141 
L 37.455648 106.749616 
L 39.504912 108.036145 
" style="fill:none;stroke:#808080;stroke-width:0.4;"/>
    <path clip-path="url(#pdd8fb8aecc)" d="M 21.822285 80.146525 
L 22.695287 78.316044 
L 23.610418 76.503932 
L 24.567288 74.710965 
L 25.565487 72.937907 
L 26.60459 71.185517 
L 27.684151 69.454542 
L 28.803711 67.745723 
L 29.96279 66.059788 
L 31.160895 64.397459 
L 32.397512 62.759446 
L 33.672114 61.146447 
L 34.984156 59.559153 
L 36.333078 57.99824 
L 37.718303 56.464377 
L 39.139241 54.958218 
L 40.595283 53.480406 
L 42.085808 52.031573 
L 43.610179 50.612338 
L 45.167745 49.223307 
" style="fill:none;stroke:#808080;stroke-width:0.4;"/>
    <path clip-path="url(#pdd8fb8aecc)" d="M 45.167745 49.223307 
L 44.974398 50.407478 
L 44.884113 51.593852 
L 44.897013 52.780827 
L 45.01308 53.966801 
L 45.232158 55.150172 
L 45.553952 56.329343 
L 45.978026 57.502722 
L 46.503807 58.668725 
L 47.130588 59.825779 
L 47.85752 60.972321 
L 48.683624 62.106803 
L 49.607783 63.227694 
L 50.62875 64.333481 
L 51.745147 65.422671 
L 52.955467 66.493794 
L 54.258076 67.545403 
L 55.651215 68.576079 
L 57.133004 69.584431 
L 58.701442 70.569098 
" style="fill:none;stroke:#808080;stroke-width:0.4;"/>
    <path clip-path="url(#pdd8fb8aecc)" d="M 45.167745 49.223307 
L 46.757841 47.865073 
L 48.379788 46.538216 
L 50.032892 45.243304 
L 51.716447 43.980889 
L 53.429735 42.751511 
L 55.172023 41.555695 
L 56.942568 40.393951 
L 58.740612 39.266776 
L 60.565388 38.174652 
L 62.416117 37.118044 
L 64.292007 36.097405 
L 66.192257 35.11317 
L 68.116057 34.16576 
L 70.062583 33.255579 
L 72.031005 32.383016 
L 74.020481 31.548444 
L 76.030162 30.752219 
L 78.05919 29.994682 
L 80.106697 29.276156 
" style="fill:none;stroke:#808080;stroke-width:0.4;"/>
    <path clip-path="url(#pdd8fb8aecc)" d="M 80.106697 29.276156 
L 80.002058 29.917025 
L 79.953196 30.559086 
L 79.960177 31.201473 
L 80.022993 31.843317 
L 80.141557 32.483753 
L 80.31571 33.121915 
L 80.545217 33.756944 
L 80.829768 34.38798 
L 81.168979 35.014173 
L 81.562392 35.634677 
L 82.009476 36.248654 
L 82.509628 36.855276 
L 83.062171 37.453724 
L 83.666361 38.043189 
L 84.321381 38.622877 
L 85.026348 39.192003 
L 85.78031 39.749801 
L 86.582248 40.295518 
L 87.431081 40.828415 
" style="fill:none;stroke:#808080;stroke-width:0.4;"/>
    <path clip-path="url(#pdd8fb8aecc)" d="M 80.106697 29.276156 
L 82.171809 28.596948 
L 84.253643 27.957349 
L 86.351312 27.35763 
L 88.463917 26.79805 
L 90.590558 26.278846 
L 92.730325 25.80024 
L 94.882305 25.362437 
L 97.045578 24.965624 
L 99.219221 24.60997 
L 101.402304 24.295628 
L 103.593895 24.022731 
L 105.793058 23.791396 
L 107.998854 23.601722 
L 110.21034 23.45379 
L 112.426572 23.347664 
L 114.646603 23.283387 
L 116.869484 23.260989 
L 119.094267 23.280478 
L 121.32 23.341847 
" style="fill:none;stroke:#808080;stroke-width:0.4;"/>
    <path clip-path="url(#pdd8fb8aecc)" d="M 64.086316 213.022188 
L 62.70196 212.107184 
L 61.342644 211.153399 
L 60.008948 210.16124 
L 58.701442 209.131131 
" style="fill:none;stroke:#808080;stroke-width:0.4;"/>
    <path clip-path="url(#pdd8fb8aecc)" d="M 58.701442 209.131131 
L 60.354413 210.090783 
L 62.089684 211.024124 
L 63.904914 211.929895 
L 65.797651 212.806873 
L 67.76534 213.653875 
L 69.805326 214.469756 
L 71.914854 215.253415 
L 74.091077 216.003795 
L 76.331057 216.719882 
L 78.63177 217.40071 
L 80.99011 218.04536 
L 83.402893 218.652961 
L 85.866862 219.222694 
L 88.378692 219.753788 
L 90.934991 220.245528 
L 93.532308 220.697248 
L 96.167137 221.108341 
L 98.835922 221.47825 
L 101.535059 221.806476 
" style="fill:none;stroke:#808080;stroke-width:0.4;"/>
    <path clip-path="url(#pdd8fb8aecc)" d="M 58.701442 209.131131 
L 57.420685 208.063512 
L 56.167224 206.958839 
L 54.941593 205.817584 
L 53.744317 204.640235 
L 52.575907 203.427294 
L 51.436863 202.17928 
L 50.32767 200.896725 
L 49.248802 199.580178 
L 48.200721 198.2302 
L 47.183874 196.847369 
L 46.198696 195.432276 
L 45.245607 193.985524 
L 44.325014 192.507732 
L 43.437311 190.99953 
L 42.582877 189.461564 
L 41.762076 187.894491 
L 40.97526 186.298978 
L 40.222765 184.67571 
L 39.504912 183.025377 
" style="fill:none;stroke:#808080;stroke-width:0.4;"/>
    <path clip-path="url(#pdd8fb8aecc)" d="M 39.504912 183.025377 
L 41.664622 184.279223 
L 43.931863 185.498692 
L 46.303575 186.682139 
L 48.776555 187.827966 
L 51.347465 188.934627 
L 54.012835 190.000627 
L 56.769067 191.024527 
L 59.612439 192.004946 
L 62.539113 192.940559 
L 65.545139 193.830104 
L 68.626459 194.672379 
L 71.778912 195.466248 
L 74.998243 196.210639 
L 78.280107 196.904548 
L 81.620072 197.547036 
L 85.013631 198.137238 
L 88.456201 198.674356 
L 91.943136 199.157665 
L 95.469728 199.586513 
" style="fill:none;stroke:#808080;stroke-width:0.4;"/>
    <path clip-path="url(#pdd8fb8aecc)" d="M 39.504912 183.025377 
L 38.822007 181.348686 
L 38.174343 179.646353 
L 37.562196 177.919105 
L 36.985827 176.16768 
L 36.445483 174.392825 
L 35.941395 172.5953 
L 35.473777 170.775871 
L 35.04283 168.935317 
L 34.648738 167.074423 
L 34.291669 165.193984 
L 33.971775 163.294804 
L 33.689194 161.377693 
L 33.444046 159.443471 
L 33.236435 157.492964 
L 33.06645 155.527006 
L 32.934165 153.546435 
L 32.839635 151.552098 
L 32.782901 149.544847 
L 32.763987 147.525539 
" style="fill:none;stroke:#808080;stroke-width:0.4;"/>
    <path clip-path="url(#pdd8fb8aecc)" d="M 32.763987 147.525539 
L 35.10164 148.882692 
L 37.555684 150.202636 
L 40.122806 151.48359 
L 42.799541 152.723824 
L 45.582274 153.921665 
L 48.46725 155.075495 
L 51.450573 156.183757 
L 54.528217 157.244954 
L 57.696027 158.257654 
L 60.949726 159.220491 
L 64.284922 160.132163 
L 67.697113 160.991441 
L 71.181692 161.797164 
L 74.733955 162.548245 
L 78.349108 163.24367 
L 82.022269 163.882499 
L 85.74848 164.463872 
L 89.522711 164.987002 
L 93.339867 165.451184 
" style="fill:none;stroke:#808080;stroke-width:0.4;"/>
    <path clip-path="url(#pdd8fb8aecc)" d="M 32.763987 147.525539 
L 32.782901 145.495037 
L 32.839635 143.454209 
L 32.934165 141.403925 
L 33.06645 139.345062 
L 33.236435 137.2785 
L 33.444046 135.20512 
L 33.689194 133.125809 
L 33.971775 131.041456 
L 34.291669 128.952949 
L 34.648738 126.861182 
L 35.04283 124.767048 
L 35.473777 122.671442 
L 35.941395 120.575258 
L 36.445483 118.479393 
L 36.985827 116.38474 
L 37.562196 114.292196 
L 38.174343 112.202654 
L 38.822007 110.117007 
L 39.504912 108.036145 
" style="fill:none;stroke:#808080;stroke-width:0.4;"/>
    <path clip-path="url(#pdd8fb8aecc)" d="M 39.504912 108.036145 
L 41.664622 109.289991 
L 43.931863 110.50946 
L 46.303575 111.692907 
L 48.776555 112.838734 
L 51.347465 113.945395 
L 54.012835 115.011395 
L 56.769067 116.035295 
L 59.612439 117.015714 
L 62.539113 117.951327 
L 65.545139 118.840872 
L 68.626459 119.683147 
L 71.778912 120.477016 
L 74.998243 121.221407 
L 78.280107 121.915316 
L 81.620072 122.557804 
L 85.013631 123.148006 
L 88.456201 123.685124 
L 91.943136 124.168433 
L 95.469728 124.597281 
" style="fill:none;stroke:#808080;stroke-width:0.4;"/>
    <path clip-path="url(#pdd8fb8aecc)" d="M 39.504912 108.036145 
L 40.222765 105.960958 
L 40.97526 103.892331 
L 41.762076 101.831149 
L 42.582877 99.778292 
L 43.437311 97.734637 
L 44.325014 95.701057 
L 45.245607 93.67842 
L 46.198696 91.667591 
L 47.183874 89.669428 
L 48.200721 87.684786 
L 49.248802 85.714511 
L 50.32767 83.759446 
L 51.436863 81.820425 
L 52.575907 79.898277 
L 53.744317 77.993824 
L 54.941593 76.107877 
L 56.167224 74.241244 
L 57.420685 72.394721 
L 58.701442 70.569098 
" style="fill:none;stroke:#808080;stroke-width:0.4;"/>
    <path clip-path="url(#pdd8fb8aecc)" d="M 58.701442 70.569098 
L 60.354413 71.52875 
L 62.089684 72.462091 
L 63.904914 73.367862 
L 65.797651 74.24484 
L 67.76534 75.091842 
L 69.805326 75.907723 
L 71.914854 76.691382 
L 74.091077 77.441762 
L 76.331057 78.157849 
L 78.63177 78.838677 
L 80.99011 79.483327 
L 83.402893 80.090928 
L 85.866862 80.660661 
L 88.378692 81.191755 
L 90.934991 81.683495 
L 93.532308 82.135215 
L 96.167137 82.546308 
L 98.835922 82.916217 
L 101.535059 83.244443 
" style="fill:none;stroke:#808080;stroke-width:0.4;"/>
    <path clip-path="url(#pdd8fb8aecc)" d="M 58.701442 70.569098 
L 60.008948 68.765153 
L 61.342644 66.983659 
L 62.70196 65.225375 
L 64.086316 63.491052 
L 65.49512 61.781432 
L 66.927771 60.097246 
L 68.383656 58.439211 
L 69.862154 56.808037 
L 71.362633 55.20442 
L 72.884452 53.629046 
L 74.426961 52.082587 
L 75.989501 50.565704 
L 77.571405 49.079045 
L 79.171996 47.623244 
L 80.790592 46.198925 
L 82.426501 44.806694 
L 84.079024 43.447148 
L 85.747455 42.120866 
L 87.431081 40.828415 
" style="fill:none;stroke:#808080;stroke-width:0.4;"/>
    <path clip-path="url(#pdd8fb8aecc)" d="M 87.431081 40.828415 
L 88.325662 41.347775 
L 89.264784 41.852896 
L 90.247179 42.343096 
L 91.271521 42.817713 
L 92.336427 43.276107 
L 93.440459 43.717658 
L 94.582128 44.141772 
L 95.759891 44.547874 
L 96.97216 44.935418 
L 98.217296 45.30388 
L 99.493621 45.652761 
L 100.799409 45.981593 
L 102.1329 46.28993 
L 103.492293 46.577356 
L 104.875751 46.843483 
L 106.281409 47.087953 
L 107.707369 47.310435 
L 109.151704 47.510628 
L 110.612467 47.688262 
" style="fill:none;stroke:#808080;stroke-width:0.4;"/>
    <path clip-path="url(#pdd8fb8aecc)" d="M 87.431081 40.828415 
L 89.129183 39.570348 
L 90.841037 38.347201 
L 92.565909 37.159498 
L 94.303065 36.007745 
L 96.051762 34.892435 
L 97.811252 33.814044 
L 99.580784 32.773032 
L 101.359602 31.769844 
L 103.146947 30.80491 
L 104.942055 29.87864 
L 106.744159 28.991431 
L 108.55249 28.143662 
L 110.366274 27.335694 
L 112.184737 26.567874 
L 114.007102 25.840528 
L 115.832592 25.153968 
L 117.660425 24.508487 
L 119.489822 23.904361 
L 121.32 23.341847 
" style="fill:none;stroke:#808080;stroke-width:0.4;"/>
   </g>
   <g id="LineCollection_2">
    <path clip-path="url(#pdd8fb8aecc)" d="M 121.32 13.213069 
L 128.142156 13.428542 
L 134.937117 14.074102 
L 141.677796 15.147176 
L 148.337323 16.643485 
L 154.889151 18.557066 
L 161.307163 20.88029 
L 167.565774 23.603897 
L 173.640036 26.717028 
L 179.505734 30.207274 
L 185.139488 34.060723 
L 190.518838 38.262013 
L 195.622341 42.794396 
L 200.429654 47.639805 
L 204.921612 52.778925 
L 209.080309 58.19127 
L 212.889169 63.855264 
L 216.333006 69.74833 
L 219.398094 75.846976 
L 222.072214 82.12689 
L 224.344706 88.56304 
L 226.206511 95.129769 
L 227.650208 101.800899 
L 228.670042 108.549838 
L 229.261946 115.349683 
L 229.423563 122.173328 
L 229.154247 128.99357 
L 228.455072 135.783224 
L 227.328825 142.515223 
L 225.779996 149.162732 
L 223.814759 155.699251 
L 221.440947 162.098725 
L 218.668024 168.335642 
L 215.507044 174.385142 
L 211.970606 180.223108 
L 208.072808 185.826269 
L 203.829188 191.172289 
L 199.256662 196.239858 
L 194.373458 201.008774 
L 189.199042 205.460027 
L 183.754039 209.575874 
L 178.060156 213.339906 
L 172.140091 216.73712 
L 166.017441 219.753974 
L 159.716615 222.378441 
L 153.262728 224.600059 
L 146.681508 226.409973 
L 139.99919 227.800967 
L 133.242411 228.767497 
L 126.438105 229.30571 
L 119.613398 229.413459 
L 112.795493 229.090317 
L 106.01157 228.337571 
L 99.288671 227.158221 
L 92.653595 225.556969 
L 86.132791 223.540198 
L 79.752254 221.115947 
L 73.537419 218.29388 
L 67.513059 215.085247 
L 61.703189 211.502838 
L 56.130969 207.560934 
L 50.818611 203.275248 
L 45.787293 198.662865 
L 41.057071 193.74217 
L 36.6468 188.532779 
L 32.574061 183.055458 
L 28.85509 177.332042 
L 25.504711 171.385345 
L 22.536279 165.239073 
L 19.961629 158.917727 
L 17.791023 152.446505 
L 16.033113 145.851204 
L 14.694908 139.158114 
L 13.781742 132.393917 
L 13.297255 125.585575 
L 13.243379 118.76023 
L 13.620327 111.945088 
L 14.426598 105.167318 
L 15.658978 98.453937 
L 17.312553 91.831707 
L 19.380732 85.327026 
L 21.855272 78.965823 
L 24.726307 72.773457 
L 27.982392 66.774611 
L 31.610549 60.9932 
L 35.596314 55.452268 
L 39.923799 50.173905 
L 44.575752 45.179151 
L 49.533631 40.487916 
L 54.777672 36.118903 
L 60.286969 32.089525 
L 66.039563 28.415847 
L 72.01252 25.112511 
L 78.182031 22.192687 
L 84.523503 19.668014 
L 91.011657 17.548555 
L 97.620628 15.84276 
L 104.324072 14.557427 
L 111.095267 13.697682 
L 117.907221 13.266951 
L 121.32 13.213069 
L 121.32 13.213069 
" style="fill:none;stroke:#808080;stroke-width:0.4;"/>
   </g>
   <g id="LineCollection_3">
    <path clip-path="url(#pdd8fb8aecc)" d="M 44.299561 197.059328 
L 44.106024 196.155292 
L 44.229776 194.943742 
L 44.670308 193.429656 
L 45.425811 191.619257 
L 46.493178 189.519982 
L 47.868026 187.140459 
L 49.544703 184.490466 
L 51.51632 181.580892 
L 53.774775 178.423693 
L 56.310789 175.031842 
L 59.113939 171.419278 
L 62.172707 167.600846 
L 65.474524 163.592235 
L 69.005822 159.409919 
L 72.75209 155.071083 
L 76.697935 150.593557 
L 80.827141 145.995739 
L 85.12274 141.296524 
L 89.567082 136.51522 
L 94.141904 131.671477 
L 98.828406 126.785196 
L 103.607331 121.876459 
L 108.459041 116.965434 
L 113.3636 112.072304 
L 118.300853 107.217174 
L 123.250512 102.419995 
L 128.192239 97.700481 
L 133.105726 93.078025 
L 137.970783 88.571621 
L 142.767418 84.199786 
L 147.475922 79.980487 
L 152.076945 75.931061 
L 156.551581 72.068148 
L 160.881443 68.407621 
L 165.048739 64.964522 
L 169.036343 61.753001 
L 172.827871 58.786252 
L 176.407743 56.076469 
L 179.761246 53.634785 
L 179.761246 53.634785 
L 182.874603 51.471234 
L 185.735018 49.594706 
L 188.330738 48.012914 
L 190.651096 46.732355 
L 192.686559 45.758294 
L 194.42876 45.094732 
L 195.870543 44.744395 
L 197.00598 44.708724 
L 197.830409 44.987866 
" style="fill:none;stroke:#808080;stroke-width:1.5;"/>
   </g>
   <g id="PathCollection_1">
    <defs>
     <path d="M 0 1.5 
C 0.397805 1.5 0.77937 1.341951 1.06066 1.06066 
C 1.341951 0.77937 1.5 0.397805 1.5 0 
C 1.5 -0.397805 1.341951 -0.77937 1.06066 -1.06066 
C 0.77937 -1.341951 0.397805 -1.5 0 -1.5 
C -0.397805 -1.5 -0.77937 -1.341951 -1.06066 -1.06066 
C -1.341951 -0.77937 -1.5 -0.397805 -1.5 0 
C -1.5 0.397805 -1.341951 0.77937 -1.06066 1.06066 
C -0.77937 1.341951 -0.397805 1.5 0 1.5 
z
" id="m7b4c41842d" style="stroke:#000000;"/>
    </defs>
    <g clip-path="url(#pdd8fb8aecc)">
     <use style="stroke:#000000;" x="85.292912" xlink:href="#m7b4c41842d" y="141.111992"/>
     <use style="stroke:#000000;" x="163.672349" xlink:href="#m7b4c41842d" y="66.092458"/>
    </g>
   </g>
  </g>
 </g>
 <defs>
  <clipPath id="pdd8fb8aecc">
   <rect height="218.376" width="218.376" x="12.132" y="12.132"/>
  </clipPath>
 </defs>
</svg>
